<svg width="102" height="58" viewBox="0 0 102 58" fill="none" xmlns="http://www.w3.org/2000/svg">
<rect width="102" height="58" fill="white"/>
<g clip-path="url(#clip0)">
<path d="M23.2071 15.006C21.9298 15.006 21.1855 15.9866 21.1855 17.3907V18.2981V27.2024V28.1358C21.1855 29.5085 21.9298 30.5035 23.2071 30.5035C24.4607 30.5035 25.2378 29.5085 25.2378 28.1358V27.2024V18.2981V17.3907C25.2378 15.9866 24.4607 15.006 23.2071 15.006V15.006Z" fill="#1756C2"/>
<path d="M32.7075 19.2612H31.755V18.6721C31.755 18.0106 32.1423 17.732 33.1664 17.8474C34.2561 17.9483 34.5008 17.2584 34.5008 16.7068C34.5008 16.2802 34.3757 16.0639 34.0448 15.6821C33.3388 14.9849 31.5522 15.006 31.5522 15.006C31.5522 15.006 29.9325 14.9317 28.8343 15.7993C27.741 16.6439 27.8363 18.1821 27.8363 18.1821V19.2612H27.6609C26.9342 19.2612 26.1626 19.7113 26.1626 20.6357C26.1626 21.5667 27.038 21.9932 27.741 21.9932H27.8363V28.4059C27.8363 29.5085 28.5156 30.5035 29.8554 30.5035C31.2226 30.5035 31.755 29.5399 31.755 28.4681V21.9932H32.7075C33.2338 21.9932 34.2798 21.7377 34.2798 20.6894C34.2798 19.6013 33.4554 19.2612 32.7075 19.2612V19.2612Z" fill="#1756C2"/>
<path d="M44.1357 18.9059C43.48 18.9059 42.9561 19.1996 42.6131 19.6442C41.9824 19.2086 41.1519 18.9059 40.1837 18.9059C36.0574 18.9059 34.2295 21.9932 34.2295 24.9742C34.2295 28.1654 36.4502 30.634 40.1837 30.634C41.0682 30.634 41.9205 30.341 42.6083 29.8903C42.9446 30.3465 43.4722 30.634 44.1357 30.634C45.419 30.634 46.1506 29.6499 46.1506 28.2603V21.2882C46.1506 19.9228 45.419 18.9059 44.1357 18.9059V18.9059ZM38.2374 24.8201C38.2374 22.2808 39.4752 21.8307 40.3069 21.8307C40.3397 21.8307 40.3816 21.8307 40.4107 21.8307C41.3662 21.905 42.119 22.5388 42.119 24.9301C42.119 27.2827 41.3031 27.754 40.4574 27.8011C40.4077 27.8011 40.3828 27.8011 40.33 27.8011C39.3805 27.8011 38.2368 27.3504 38.2368 24.8201H38.2374V24.8201Z" fill="#1756C2"/>
<path d="M19.6214 27.4513C19.4114 26.8229 16.0014 17.1484 15.8321 16.6923C15.6445 16.2331 15.4721 15.9008 15.0599 15.6144C14.3787 15.1003 12.9205 15.1311 12.9205 15.1311C12.9205 15.1311 11.4818 15.0979 10.7885 15.6144C10.383 15.9014 10.21 16.2337 10.0315 16.6923C9.85907 17.1484 6.44915 26.8229 6.21421 27.4513C6.02298 28.0651 5.85786 28.8173 6.21421 29.4311C6.60517 30.0051 7.25048 30.5035 8.0846 30.5035C8.93025 30.5035 9.67999 30.138 10.0078 29.1133C10.3265 28.0651 10.4935 27.5528 10.4935 27.5528H12.9205H15.3604C15.3604 27.5528 15.5188 28.0651 15.8406 29.1133C16.1617 30.1386 16.9302 30.5035 17.7528 30.5035C18.6179 30.5035 19.279 30.0051 19.6214 29.4311C19.9917 28.8173 19.8484 28.0651 19.6214 27.4513V27.4513ZM11.4101 24.2208L12.9205 19.3144L14.4352 24.2208H11.4101V24.2208Z" fill="#1756C2"/>
<path d="M91.696 42.1549H6V43.9957H91.696C94.3258 43.9957 96.5283 42.0721 96.9302 39.5799C95.7519 41.1477 93.8341 42.1549 91.696 42.1549Z" fill="#EFCF00"/>
<path d="M96.9964 35.6123V34.137H11.3155C8.39065 34.137 6 36.518 6 39.4319V40.9073H91.696C94.6264 40.9073 96.9964 38.5226 96.9964 35.6123Z" fill="#D60F27"/>
<path d="M63.6618 18.7869C61.494 18.7869 59.3862 21.6754 58.6383 22.7931C58.6717 22.5388 58.7276 22.1503 58.8472 21.7062C59.005 20.9704 59.1416 19.9282 58.6383 19.3143C58.3439 18.9591 57.9092 18.7869 57.3264 18.7869C55.3188 18.7869 53.3355 21.3353 52.4875 22.5829C52.5876 22.218 52.7078 21.7618 52.788 21.4984C52.9191 20.8852 53.1783 19.9288 52.7631 19.3711C52.5154 19.0274 52.108 18.8727 51.5301 18.8727C50.5855 18.8727 49.5347 19.3143 49.491 19.3143L49.2767 19.4104L49.4727 19.5252C49.4727 19.5252 49.7617 19.8128 49.5389 21.3353C49.1577 24.0117 48.2799 27.2023 47.9375 28.4681C47.7408 29.1133 47.7705 29.6408 48.0297 29.9906C48.3035 30.3464 48.8007 30.5506 49.4211 30.5506C50.2868 30.5506 51.0736 30.263 51.1173 30.222L51.2454 30.1887L51.144 30.0588C51.144 30.0504 50.6924 29.3828 51.2879 28.085C53.2943 23.6426 54.9164 21.8742 55.3698 21.5721C55.4767 21.5226 55.5392 21.4634 55.6163 21.4634C55.6661 21.4634 55.691 21.496 55.691 21.5208C55.7408 21.5455 55.7493 21.6549 55.7408 21.7546C55.5775 23.2988 54.9218 25.8774 54.5005 27.6017C54.4101 27.9956 54.3129 28.3164 54.2613 28.5859C54.1065 29.2462 54.1581 29.7586 54.4101 30.0993C54.6608 30.3815 55.0663 30.544 55.64 30.544C56.5397 30.544 57.3349 30.2153 57.3677 30.2093L57.531 30.1434L57.409 30.0335C57.409 29.9918 56.9743 29.4281 57.5844 28.0542C59.0675 24.637 61.0709 21.9672 61.5917 21.5794C61.7678 21.4561 61.8576 21.4404 61.9104 21.4404C61.9274 21.4404 61.9353 21.4404 61.9687 21.4899C62.01 21.531 62.027 21.6772 62.01 21.8543C62.0021 21.9201 61.9438 22.1328 61.8971 22.4494C61.6002 23.6323 61.0727 26.0774 60.7837 27.7787C60.6107 28.7943 60.6945 29.5556 61.0727 29.9888C61.3792 30.3386 61.8588 30.5428 62.4422 30.5428C63.4603 30.5428 64.4013 29.9108 64.4431 29.8879L64.5919 29.787L64.4553 29.6951C64.4553 29.6951 63.7347 29.0191 64.0886 27.0253C64.3393 25.6889 64.6629 24.1513 64.9076 23.0336C65.0235 22.4735 65.0982 22.0077 65.1607 21.7534L65.1771 21.6531C65.3076 21.0398 65.5043 19.9197 64.9713 19.2853C64.689 18.918 64.2628 18.7784 63.6703 18.7784L63.6618 18.7869V18.7869Z" fill="#D60F27"/>
<path d="M76.33 18.9059C75.715 18.9059 75.2142 19.0697 74.8718 19.4002C74.6211 19.2467 73.7663 18.7869 72.6445 18.7869C72.004 18.7869 71.0624 18.9059 70.0061 19.5723C68.8332 20.2955 67.8443 21.4513 67.0375 23.033C65.2126 26.5746 66.0874 29.1605 66.5464 29.7954C66.9458 30.347 67.4989 30.596 68.2966 30.596C69.4251 30.596 70.9264 30.1543 73.2157 26.5746C73.1489 27.0785 73.0737 27.7872 73.0737 28.3914C73.0737 30.341 74.4535 30.5512 75.023 30.5512C76.497 30.5512 77.0112 29.8667 77.0154 29.8432L77.0737 29.7688L77.0154 29.6945C76.9984 29.6698 76.3282 28.9889 76.7695 25.3621C77.1945 21.9062 78.3995 19.5246 78.3995 19.4956L78.4578 19.3996L78.3558 19.3331C78.3139 19.3168 77.3202 18.9066 76.3318 18.9066L76.33 18.9059V18.9059ZM69.9612 27.9406C69.6607 27.9406 69.5004 27.4277 69.5004 26.8918C69.5004 26.3106 69.7918 22.9653 71.2148 21.2495C71.5305 20.9154 71.9057 20.7045 72.2808 20.7045C73.192 20.7045 74.0438 21.6754 74.255 21.9256C73.1502 24.1598 71.5985 26.4743 70.4948 27.6084C70.292 27.8337 70.096 27.9406 69.9612 27.9406Z" fill="#D60F27"/>
<path d="M87.6415 18.7869C86.0479 18.7869 84.1338 21.412 83.324 22.63C83.4582 22.1032 83.6548 21.3268 83.806 20.6121C83.9104 20.0762 83.8394 19.6581 83.6306 19.3772C83.3568 19.0697 82.9045 18.9059 82.2732 18.9059C81.3686 18.9059 80.2759 19.2993 80.237 19.3144L80.0786 19.3802L80.2188 19.4992C80.2188 19.5162 80.5139 19.9318 80.3317 21.3921C80.0786 22.9835 79.0611 26.951 78.6319 28.5575C78.4346 29.2027 78.4832 29.674 78.7212 30.0087C79.0842 30.4981 79.7902 30.5543 80.2759 30.5543C81.1027 30.5543 81.9247 30.2667 81.9605 30.225L82.1184 30.1924L82.0237 30.0625C82.0176 30.054 81.6303 29.439 82.0819 28.2512C83.2991 25.1929 84.6523 23.4064 85.4645 22.7931C85.6521 22.6627 85.8433 22.5829 86.0309 22.5829C86.4771 22.5829 86.7606 23.0813 86.7606 23.0813L86.8268 23.2058L86.9257 23.1049C87.3507 22.6844 88.1101 21.7914 88.3864 20.9855C88.5776 20.5028 88.8253 19.6442 88.4531 19.1458C88.2983 18.8969 88.0221 18.7869 87.6409 18.7869H87.6415V18.7869Z" fill="#D60F27"/>
<path d="M96.8446 20.2242C96.3972 20.3782 95.299 20.4791 93.8251 20.4791C93.6593 20.4791 93.5221 20.4791 93.4299 20.4791C93.496 20.0997 93.7631 19.0273 94.0521 18.0105C94.2336 17.3973 94.213 16.894 93.9532 16.5684C93.6976 16.2566 93.2781 16.1171 92.6407 16.1171C91.7471 16.1171 90.4607 16.5146 90.4109 16.5376L90.2197 16.5956L90.3842 16.7442C90.8777 17.2469 90.3423 19.669 90.1128 20.5692C90.0873 20.6187 88.8325 25.423 88.8325 27.7189C88.8325 29.6449 89.8925 30.5995 91.9231 30.5995C92.8702 30.5995 94.2512 30.3452 95.1794 29.544C95.585 29.1954 95.7634 28.697 95.6566 28.1696C95.5983 27.7908 95.4095 27.4941 95.4095 27.479L95.3434 27.3394L95.2244 27.4494C95.208 27.4494 94.7903 27.8584 93.9556 28.1394C93.6405 28.2312 93.3928 28.294 93.1373 28.294C92.8689 28.294 92.6431 28.1841 92.4312 28.0064C91.9614 27.5261 92.2643 25.8109 92.3651 25.2599C92.5223 24.3887 92.909 22.7677 92.9928 22.3617C93.1391 22.3617 93.445 22.3557 93.8384 22.3557C94.1754 22.3557 94.4637 22.3617 94.746 22.3617C96.4938 22.395 96.9831 21.0434 97.0001 20.3293V20.1505L96.8446 20.2242V20.2242Z" fill="#D60F27"/>
</g>
<defs>
<clipPath id="clip0">
<rect width="91" height="29" fill="white" transform="translate(6 15)"/>
</clipPath>
</defs>
</svg>
