<svg width="68" height="46" viewBox="0 0 68 46" fill="none" xmlns="http://www.w3.org/2000/svg">
<rect width="68" height="46" fill="white"/>
<path d="M12.55 14.0611C10.2556 14.1628 8.0464 14.7048 6.01 15.668L5.77 15.7805L5.6884 15.9288C5.5708 16.1418 5.3236 16.6336 5.2264 16.8477C4.6048 18.2213 4.2064 19.7276 4.03 21.368L4 21.6468V23.1208C4 24.5099 4.0012 24.6092 4.024 24.8402C4.2256 26.879 4.7704 28.8854 5.6452 30.8046L5.7652 31.069L6.0556 31.2078C8.2552 32.2643 10.4932 32.8326 12.874 32.9403C13.4464 32.9654 14.3404 32.9499 14.914 32.9044C16.8868 32.7453 18.7624 32.2607 20.56 31.4459C20.722 31.3717 20.9176 31.2784 20.9968 31.2377L21.1384 31.1635L21.2344 30.9601C22.1344 29.0398 22.6576 27.1135 22.8268 25.0914C22.8724 24.5602 22.8808 24.3269 22.8808 23.6916C22.8808 23.055 22.8724 22.8205 22.8268 22.2857C22.654 20.2266 22.12 18.195 21.2176 16.1645L21.0976 15.8941L20.8144 15.7553C20.134 15.4239 19.5064 15.1691 18.76 14.9214C17.2324 14.4141 15.7396 14.1413 14.05 14.0599C13.768 14.0468 12.862 14.0468 12.55 14.0611ZM14.068 14.5995C16.318 14.6965 18.472 15.2373 20.4952 16.2124L20.7244 16.3237L20.8384 16.5821C21.6232 18.3517 22.12 20.1548 22.3168 21.9387C22.39 22.604 22.4128 23.0275 22.4128 23.7394C22.4128 24.3365 22.4044 24.5614 22.3588 25.0914C22.198 26.9926 21.6976 28.8424 20.86 30.6311C20.812 30.7328 20.7676 30.8237 20.7604 30.8321C20.7352 30.8632 20.1052 31.1552 19.72 31.3131C16.972 32.4426 14.0044 32.7859 11.0404 32.3181C9.4612 32.0693 7.774 31.532 6.364 30.8309L6.166 30.7328L6.0844 30.5533C4.69 27.5071 4.1656 24.1905 4.5832 21.0653C4.8076 19.3854 5.3308 17.7439 6.0676 16.4074L6.1684 16.2232L6.3772 16.1239C8.7256 15.0087 11.3776 14.4823 14.068 14.5995Z" fill="#005CAA"/>
<path d="M13.432 15.7913C12.5572 15.8571 11.8708 16.0868 11.3212 16.4984C11.176 16.6073 10.9732 16.8011 10.8616 16.9375C10.6252 17.2294 10.4428 17.6027 10.348 17.9868C10.2808 18.2584 10.27 18.3661 10.27 18.7322C10.2712 19.1091 10.288 19.2563 10.3648 19.5697C10.4368 19.8605 10.5232 20.0591 10.6852 20.2996C10.8448 20.5389 10.9876 20.704 11.4532 21.1969C11.9224 21.6935 12.0904 21.8945 12.2884 22.1996C12.586 22.6566 12.7924 23.2441 12.9268 24.0146C13.0768 24.8737 13.1152 25.7136 13.084 27.4401C13.0768 27.8984 13.0732 28.3172 13.078 28.3698L13.0864 28.4655H13.3384H13.5916L13.5832 28.1329C13.5784 27.951 13.5664 27.5586 13.558 27.2631C13.5376 26.6337 13.5352 25.7471 13.552 25.3726C13.5952 24.4442 13.714 23.7083 13.924 23.0658C14.02 22.7703 14.1388 22.537 14.3596 22.208C14.5708 21.8933 14.6824 21.7629 15.094 21.3465C15.2728 21.1658 15.4636 20.9672 15.5188 20.9062C15.7936 20.5963 16.0384 20.2015 16.2256 19.7612C16.288 19.6152 16.3228 19.4656 16.3624 19.1809C16.3864 19.0074 16.3828 18.445 16.3576 18.2751C16.2364 17.4843 15.8788 16.8585 15.2968 16.423C14.8648 16.0988 14.3044 15.887 13.648 15.8008C13.5724 15.7913 13.5052 15.7841 13.4992 15.7853C13.492 15.7865 13.462 15.7889 13.432 15.7913Z" fill="#005CAA"/>
<path d="M9.11315 20.4623C8.64155 20.5114 8.10035 20.7303 7.76795 21.0043C7.51955 21.2101 7.32635 21.459 7.22435 21.7055C7.08035 22.0536 6.97235 22.8385 7.01075 23.2489C7.05395 23.7 7.18475 24.0051 7.44635 24.2695C7.75595 24.583 8.13155 24.7577 8.99795 24.9958C10.0036 25.271 10.27 25.3595 10.678 25.5581C11.2504 25.8357 11.7076 26.221 12.0028 26.6708C12.2644 27.0693 12.4408 27.634 12.508 28.2801C12.5284 28.4895 12.5008 28.4655 12.73 28.4655H12.9268L12.9328 28.4141C12.9424 28.3339 12.964 27.9271 12.976 27.5562C13.0216 26.2162 12.9244 24.9754 12.694 23.9752C12.466 22.9881 12.1204 22.2104 11.638 21.6002C11.5336 21.4686 11.284 21.2125 11.158 21.1084C10.7104 20.7375 10.21 20.521 9.66155 20.4623C9.52595 20.4468 9.25835 20.448 9.11315 20.4623Z" fill="#005CAA"/>
<path d="M16.9301 20.4671C16.1069 20.5831 15.4073 21.0462 14.8253 21.8586C14.6201 22.1457 14.3825 22.5825 14.2193 22.9749C13.9157 23.7071 13.8005 24.2958 13.7309 25.4683C13.7153 25.7399 13.7021 27.7536 13.7141 28.1736L13.7225 28.4894H13.9493C14.0741 28.4894 14.1761 28.4859 14.1761 28.4799C14.1761 28.4751 14.1821 28.3698 14.1881 28.2454C14.2229 27.5813 14.3669 27.1123 14.6813 26.6421C14.8121 26.4459 14.9465 26.2867 15.1373 26.1025C15.3413 25.9051 15.5213 25.783 15.8633 25.6131C16.2269 25.4313 16.5833 25.3068 17.3801 25.0795C18.1337 24.8653 18.3749 24.7828 18.6534 24.6428C18.8934 24.5231 19.0338 24.425 19.1934 24.2647C19.629 23.8292 19.7394 23.1819 19.5402 22.2403C19.4838 21.9782 19.4502 21.8705 19.3818 21.7318C19.1586 21.2879 18.7866 20.9253 18.3245 20.7016C18.0917 20.5891 17.8961 20.5269 17.6321 20.479C17.4761 20.4515 17.0909 20.4444 16.9301 20.4671Z" fill="#005CAA"/>
<path d="M19.3374 24.4357C19.2582 24.6822 19.053 24.8438 18.6162 25.0053C18.423 25.0759 18.2214 25.1357 17.6622 25.2888C16.821 25.5186 16.4766 25.6394 16.0361 25.8584C15.5489 26.1013 15.2057 26.3681 14.9117 26.7318C14.7521 26.928 14.5913 27.2164 14.4929 27.4784C14.4065 27.7117 14.3345 28.0551 14.3021 28.3901L14.2949 28.4655H14.5025H14.7101L14.7845 28.3124C14.8913 28.0934 14.9873 27.9534 15.1289 27.8122C15.3617 27.5801 15.6089 27.4844 15.9821 27.4844C16.1585 27.4844 16.3457 27.5071 16.8078 27.5861C17.3598 27.6794 17.487 27.6914 17.8122 27.6842C18.1038 27.6782 18.2094 27.6639 18.4242 27.6028C18.579 27.5586 18.6714 27.5227 18.8238 27.4461C19.3614 27.1781 19.6842 26.7845 19.8138 26.2341C19.8426 26.1144 19.845 26.0785 19.845 25.8392C19.8462 25.6107 19.8426 25.5581 19.8186 25.4396C19.7694 25.1979 19.671 24.9096 19.5642 24.6942C19.5042 24.5745 19.3794 24.3496 19.371 24.3496C19.3674 24.3496 19.3518 24.3891 19.3374 24.4357Z" fill="#005CAA"/>
<path d="M7.1622 24.4776C7.0794 24.6068 6.9534 24.8617 6.9102 24.9897C6.8226 25.2482 6.789 25.4839 6.7998 25.7615C6.8202 26.2831 7.0302 26.7725 7.389 27.1314C7.7046 27.4473 8.0418 27.5909 8.55899 27.6292C8.84459 27.6507 9.11819 27.6268 9.77939 27.5215C10.4538 27.4138 10.7346 27.403 11.0082 27.4724C11.4114 27.5753 11.6814 27.8589 11.865 28.3722L11.8986 28.4655H12.1122H12.3258L12.3354 28.426C12.3498 28.359 12.3426 28.0455 12.3234 27.9151C12.2142 27.196 11.817 26.5655 11.1714 26.0845C10.8354 25.8344 10.4682 25.6945 9.41219 25.4145C8.72699 25.2326 8.42459 25.1441 8.1762 25.0531C7.6662 24.8641 7.4058 24.6906 7.2822 24.4561C7.2582 24.4106 7.2366 24.3735 7.2342 24.3735C7.2318 24.3735 7.1994 24.4202 7.1622 24.4776Z" fill="#005CAA"/>
<path d="M8.6966 29.2181C8.6234 29.2361 8.5322 29.2971 8.4794 29.3629C8.4506 29.3988 8.3954 29.4933 8.3558 29.5723C8.2262 29.8331 8.1434 30.131 8.1314 30.3811C8.123 30.5677 8.1386 30.6251 8.2238 30.7185C8.3282 30.8321 8.4902 30.8884 8.6954 30.88L8.81179 30.8752V30.9123C8.81179 30.9482 8.81179 30.9482 8.95819 30.9877C9.03739 31.0092 9.10459 31.0248 9.10579 31.0236C9.10819 31.0212 9.16459 30.8285 9.23179 30.5952C9.29899 30.3619 9.35659 30.1657 9.35899 30.1585C9.36499 30.143 8.801 29.9551 8.7878 29.9683C8.7782 29.9791 8.6786 30.2746 8.6834 30.2782C8.6846 30.2794 8.7302 30.2961 8.7854 30.3129C8.83939 30.3308 8.88379 30.3523 8.88379 30.3607C8.88379 30.399 8.84539 30.4983 8.82259 30.5187C8.80339 30.5354 8.7794 30.5414 8.7194 30.5414C8.6486 30.5414 8.639 30.5378 8.6126 30.5079C8.5886 30.4804 8.5838 30.4612 8.5838 30.4026C8.5838 30.2626 8.657 29.9982 8.7506 29.8008C8.81659 29.6608 8.83339 29.644 8.90059 29.6476C8.95819 29.65 9.01339 29.6716 9.03859 29.7027C9.05059 29.717 9.05059 29.7386 9.03499 29.8127C9.00499 29.9539 8.99419 29.9408 9.17179 29.9731C9.26659 29.9898 9.33259 29.997 9.33979 29.9898C9.36499 29.9635 9.40219 29.7924 9.40819 29.6668C9.41419 29.5567 9.41179 29.528 9.39379 29.4909C9.34579 29.388 9.15739 29.2648 8.99179 29.2265C8.91139 29.2073 8.7614 29.2038 8.6966 29.2181Z" fill="#005CAA"/>
<path d="M17.5456 29.3305L17.356 29.3808V29.4286C17.356 29.492 17.44 31.0774 17.4436 31.081C17.4448 31.0822 17.5312 31.0534 17.6367 31.0163L17.8263 30.9505L17.8167 30.7998C17.8011 30.5401 17.7903 30.5725 17.9055 30.5282L18.0039 30.4887L18.0903 30.6107C18.1371 30.6777 18.1959 30.7603 18.2187 30.795C18.2427 30.8297 18.2655 30.8572 18.2715 30.8584C18.2763 30.8584 18.3471 30.8141 18.4287 30.7591L18.5775 30.6598L18.1683 29.9694C17.9427 29.5901 17.7531 29.2791 17.7459 29.2803C17.7399 29.2803 17.6487 29.303 17.5456 29.3305ZM17.8167 30.2111C17.7879 30.2207 17.7603 30.2243 17.7555 30.2195C17.7495 30.2147 17.7447 30.1668 17.7423 30.113L17.7375 30.0149L17.8035 30.1046L17.8695 30.1944L17.8167 30.2111Z" fill="#005CAA"/>
<path d="M9.68435 30.3224C9.58715 30.7579 9.51035 31.1157 9.51275 31.1181C9.51515 31.1205 9.60275 31.1384 9.70715 31.1576C9.81275 31.1779 9.90754 31.1958 9.91834 31.1982C9.93514 31.2018 9.94954 31.1552 10.0143 30.8919L10.0899 30.5809L10.1475 30.588C10.2171 30.5952 10.2783 30.6311 10.2975 30.673C10.3203 30.7232 10.3143 30.8357 10.2819 30.9554C10.2351 31.1265 10.2099 31.2509 10.2195 31.2605C10.2255 31.2676 10.5879 31.3598 10.6131 31.361C10.6167 31.361 10.6239 31.3167 10.6275 31.2617C10.6323 31.2078 10.6491 31.0965 10.6659 31.014C10.7079 30.801 10.7163 30.6778 10.6911 30.5916L10.6719 30.5234L10.7211 30.4792C10.8123 30.3978 10.8711 30.2315 10.8603 30.0927C10.8387 29.8355 10.6707 29.6859 10.2999 29.595C10.1823 29.5663 9.95674 29.5304 9.89554 29.5304H9.86075L9.68435 30.3224ZM10.3695 29.9982C10.4475 30.0233 10.4703 30.1394 10.4091 30.2016C10.3695 30.2399 10.3575 30.2423 10.2603 30.2231C10.2159 30.2135 10.1919 30.2028 10.1919 30.192C10.1919 30.1836 10.2039 30.1298 10.2171 30.0736L10.2435 29.9707L10.2867 29.979C10.3107 29.9826 10.3479 29.9922 10.3695 29.9982Z" fill="#005CAA"/>
<path d="M16.341 29.5902C16.167 29.6153 16.0482 29.7218 16.005 29.8893C15.9558 30.0808 16.0242 30.6802 16.1298 30.9721C16.2138 31.2054 16.3206 31.2796 16.5762 31.2784C16.8486 31.2784 17.001 31.2031 17.085 31.026C17.1222 30.9482 17.1222 30.947 17.1222 30.7484C17.1222 30.6395 17.1198 30.5462 17.1162 30.5426C17.1126 30.539 17.0226 30.5486 16.9182 30.5629C16.767 30.5845 16.7262 30.594 16.7274 30.6072C16.7286 30.6168 16.7358 30.6658 16.7442 30.7149C16.7622 30.8166 16.7562 30.8549 16.7166 30.9003C16.689 30.9338 16.611 30.9578 16.569 30.947C16.509 30.9315 16.4934 30.8836 16.4262 30.5318C16.3314 30.0305 16.3314 30.0281 16.3974 29.9611C16.449 29.9109 16.5138 29.9109 16.557 29.9611C16.5846 29.9946 16.6242 30.0975 16.6242 30.1358C16.6242 30.1454 16.6794 30.1394 16.8174 30.1155C16.9242 30.0975 17.013 30.0808 17.0142 30.0784C17.0202 30.0712 16.9482 29.8044 16.9302 29.7709C16.8822 29.6776 16.797 29.6177 16.6746 29.5914C16.605 29.5771 16.437 29.5759 16.341 29.5902Z" fill="#005CAA"/>
<path d="M11.2237 29.7708C11.2237 29.7768 11.1937 30.0711 11.1565 30.4253C11.0845 31.1228 11.0845 31.1097 11.1457 31.2293C11.2609 31.4567 11.5693 31.5895 11.8273 31.5225C12.0097 31.4746 12.1273 31.3669 12.1921 31.1886C12.2065 31.1468 12.3337 29.8785 12.3241 29.8689C12.3169 29.8629 11.9677 29.8378 11.9617 29.8438C11.9593 29.8462 11.9245 30.1058 11.8849 30.4205C11.8069 31.0379 11.8033 31.0522 11.7277 31.0917C11.6377 31.1384 11.5489 31.0929 11.5213 30.9864C11.5081 30.9362 11.5141 30.8728 11.5705 30.4061C11.6053 30.119 11.6353 29.8701 11.6365 29.8545C11.6377 29.8222 11.6605 29.8282 11.2633 29.7648C11.2417 29.7624 11.2237 29.7648 11.2237 29.7708Z" fill="#005CAA"/>
<path d="M14.9152 29.8355C14.8636 29.8462 14.7784 29.8642 14.7268 29.8773C14.6764 29.8905 14.6224 29.9013 14.6092 29.9013C14.5948 29.9013 14.584 29.9037 14.584 29.9061C14.584 29.9084 14.644 30.2722 14.716 30.7148C14.7892 31.1563 14.848 31.5224 14.848 31.5272C14.848 31.544 15.5344 31.3992 15.5896 31.3717C15.6592 31.3358 15.7288 31.2544 15.7612 31.1707C15.7996 31.0726 15.8008 30.8907 15.7624 30.7974C15.724 30.7029 15.6712 30.6275 15.6172 30.5892L15.5692 30.5569L15.6076 30.4839C15.6424 30.4169 15.646 30.399 15.646 30.3021C15.646 30.0748 15.5524 29.924 15.3664 29.8522C15.2776 29.8175 15.0544 29.8103 14.9152 29.8355ZM15.2068 30.198C15.2296 30.2231 15.2332 30.2375 15.2284 30.2829C15.2236 30.3284 15.214 30.3451 15.172 30.3822C15.1132 30.4349 15.0916 30.4385 15.082 30.4002C15.0736 30.3631 15.04 30.1836 15.04 30.1741C15.04 30.1621 15.1 30.1549 15.142 30.1609C15.1624 30.1645 15.1912 30.18 15.2068 30.198ZM15.3256 30.8895C15.3496 30.917 15.358 30.9553 15.3532 31.0199C15.3496 31.0654 15.322 31.1013 15.274 31.1228C15.2164 31.1491 15.2176 31.1515 15.1972 31.002C15.1888 30.9458 15.1804 30.8907 15.1768 30.88C15.1636 30.8357 15.2836 30.8429 15.3256 30.8895Z" fill="#005CAA"/>
<path d="M12.6493 30.734C12.6253 31.1935 12.6073 31.5716 12.6085 31.574C12.6109 31.5752 12.6901 31.5776 12.7849 31.5799L12.9577 31.5823L12.9841 31.2772C12.9985 31.1097 13.0105 30.9661 13.0105 30.959C13.0117 30.9494 13.0693 30.9434 13.1953 30.9398C13.3609 30.9362 13.3837 30.9326 13.4449 30.9051C13.6069 30.8297 13.6981 30.6586 13.6969 30.4313C13.6969 30.2793 13.6705 30.2028 13.5901 30.1142C13.4677 29.9802 13.2613 29.918 12.8857 29.9048L12.6937 29.8977L12.6493 30.734ZM13.2601 30.3463C13.3045 30.3918 13.3105 30.4684 13.2733 30.5234C13.2457 30.5641 13.2433 30.5653 13.1521 30.5689C13.0441 30.5725 13.0513 30.5856 13.0741 30.4133L13.0885 30.3057L13.1581 30.3104C13.2133 30.314 13.2349 30.3224 13.2601 30.3463Z" fill="#005CAA"/>
<path d="M50.35 15.8319C50.1832 16.0389 50.1424 16.0832 50.122 16.0772C50.1088 16.0748 50.0536 16.0557 49.9984 16.0353C49.6612 15.9109 49.2724 15.8606 48.664 15.8618C48.2512 15.863 48.0256 15.8762 47.632 15.9264C46.108 16.1203 44.5612 16.6718 43.2508 17.4914C41.7604 18.4211 40.5916 19.6858 39.832 21.1849C39.22 22.3958 38.866 23.6987 38.7388 25.2171C38.7172 25.4767 38.7376 25.832 38.8012 26.2879C39.0748 28.2645 40.006 29.7254 41.5576 30.612C42.406 31.0965 43.444 31.4064 44.608 31.5213C45.6424 31.6242 46.8292 31.5644 47.7304 31.3657C48.0628 31.2928 48.3616 31.1958 48.4036 31.148C48.4132 31.1372 48.9592 30.0161 49.618 28.6569C50.2768 27.2977 50.8192 26.1814 50.8228 26.1742C50.8264 26.1683 50.8096 26.1754 50.7868 26.1898C50.7652 26.2042 50.6572 26.2724 50.548 26.3405C49.2976 27.1218 47.7124 27.5239 46.444 27.3827C45.3916 27.2654 44.6092 26.794 44.14 25.9924C43.8628 25.521 43.7008 24.9467 43.648 24.2479C43.636 24.0924 43.636 24.0481 43.654 23.9309C43.7248 23.4415 43.858 23.0096 44.0692 22.5884C44.398 21.9303 44.9308 21.3513 45.568 20.9612C46.5184 20.3809 47.6596 20.1739 48.8296 20.3713C49.7032 20.5197 50.572 20.9133 51.3052 21.4948L51.4324 21.5953L52.6528 19.4477C53.3248 18.2667 53.872 17.2988 53.8696 17.2964C53.86 17.2868 50.5708 15.5795 50.5624 15.5795C50.5576 15.5795 50.4628 15.6931 50.35 15.8319Z" fill="#005CAA"/>
<path d="M29.027 16.0844C28.4066 17.2976 26.8718 20.2995 26.8718 20.3019C26.8718 20.3043 27.119 20.3067 27.4214 20.3079C27.9626 20.3115 27.9698 20.3115 27.9662 20.3354C27.9638 20.3486 27.3434 22.7726 26.5886 25.7231C25.8338 28.6736 25.2158 31.0929 25.2158 31.0989C25.2158 31.1145 32.6691 31.1133 32.9439 31.0977C34.3299 31.0187 35.5455 30.5342 36.5499 29.6607C36.7143 29.5184 37.0311 29.1941 37.1703 29.0278C37.8363 28.2274 38.2443 27.3049 38.3583 26.3417C38.3811 26.1443 38.3775 25.6358 38.3511 25.4515C38.3235 25.2505 38.2923 25.1022 38.2407 24.9239C38.0223 24.1713 37.5291 23.5384 36.8475 23.1328L36.7119 23.0526L36.8691 22.9725C37.2087 22.7954 37.5051 22.598 37.8159 22.3419C37.9779 22.2079 38.3127 21.8765 38.4411 21.7233C38.7507 21.3548 39.0087 20.9492 39.1839 20.5568C39.6627 19.4847 39.6879 18.384 39.2559 17.4998C39.0231 17.026 38.6451 16.6132 38.1675 16.3117C37.6179 15.9647 36.8739 15.7469 36.0375 15.6871C35.9223 15.6799 34.7199 15.6752 32.5491 15.6752H29.237L29.027 16.0844ZM34.3851 19.8987C34.7067 20.0052 34.8951 20.1787 34.9479 20.4156C34.9575 20.4575 34.9611 20.5269 34.9575 20.601C34.9431 20.881 34.7751 21.1885 34.4859 21.4637C34.3035 21.6384 34.1103 21.7592 33.9099 21.8262L33.8259 21.8549L32.9931 21.8585C32.1795 21.8621 32.1615 21.8609 32.1663 21.8394C32.1699 21.8262 32.2671 21.3764 32.3811 20.8391L32.5899 19.8628H33.4335H34.2783L34.3851 19.8987ZM33.2919 24.7767C33.8235 24.9359 34.1067 25.217 34.1283 25.6059C34.1475 25.9445 33.9915 26.2855 33.6771 26.5906C33.4263 26.8335 33.1407 26.9842 32.8359 27.0357C32.7375 27.0512 32.5959 27.0536 31.7667 27.0512L30.8103 27.0476L31.1211 25.9349C31.2915 25.3223 31.4367 24.8019 31.4439 24.7767L31.4571 24.7313L32.3115 24.7349L33.1659 24.7384L33.2919 24.7767Z" fill="#005CAA"/>
<path d="M55.8966 15.7255C55.8474 15.8116 53.5482 20.1596 53.5482 20.1668C53.5482 20.1704 53.8134 20.174 54.1362 20.174C54.483 20.174 54.7242 20.1788 54.7242 20.1847C54.7242 20.1907 53.4906 22.6483 51.9822 25.6454C50.4738 28.6438 49.2402 31.099 49.2402 31.1026C49.2402 31.1062 50.469 31.1085 51.9714 31.1073L54.7014 31.1038L55.2426 29.7996C55.539 29.0817 55.7886 28.4883 55.7946 28.4799C55.8042 28.4691 56.1354 28.4655 57.3774 28.4655C58.2402 28.4655 58.9494 28.4703 58.953 28.4751C58.9566 28.4811 58.9758 29.047 58.9962 29.735C59.0166 30.4218 59.0358 31.0128 59.0394 31.0463L59.0454 31.1097H61.5234H64.0002V30.4421V29.7757L63.6642 22.7883C63.4794 18.9452 63.3246 15.7721 63.321 15.7374L63.315 15.6752H59.6202H55.9254L55.8966 15.7255ZM59.0034 22.9941C59.0214 23.9764 59.0334 24.7828 59.0298 24.7864C59.0274 24.79 58.6434 24.7912 58.1766 24.79L57.3294 24.7864L58.1418 22.8529L58.9542 20.9194L58.9626 21.0641C58.9674 21.1443 58.9854 22.013 59.0034 22.9941Z" fill="#005CAA"/>
</svg>
