<svg width="68" height="46" viewBox="0 0 68 46" fill="none" xmlns="http://www.w3.org/2000/svg">
<rect width="68" height="46" fill="white"/>
<path d="M9.12382 17.4006L9.19582 18.4987L11.8958 21.6513C13.3898 23.387 14.6498 24.804 14.7218 24.804C14.7758 24.804 15.0638 24.6091 15.3698 24.3789L15.8918 23.9538L15.3698 23.2276C14.3078 21.7753 13.6418 20.6241 13.3898 19.7739C13.0838 18.7644 13.0298 17.1349 13.2998 16.639C13.4798 16.3202 13.4078 16.3025 11.2838 16.3025H9.06982L9.12382 17.4006Z" fill="#F15A23"/>
<path d="M15.3516 16.7807C15.1536 17.5423 15.5676 19.0655 16.3056 20.2521L16.9716 21.3502L17.2056 20.5709C17.8176 18.4987 20.0676 17.2058 22.2636 17.684L23.0196 17.8611V17.0818V16.3025H19.2396H15.4596L15.3516 16.7807Z" fill="#F15A23"/>
<path d="M27.3936 16.7099L27.8796 17.1704V22.7849V28.4171L27.3936 28.9307L26.8896 29.4266L30.5976 29.3735L34.3057 29.3204L35.5477 28.7005C37.0597 27.9389 37.7977 27.0179 37.9237 25.7072C38.0857 24.0601 37.0597 22.7317 35.2057 22.1473L34.5217 21.9347L35.1157 21.6336C36.0157 21.1377 36.3937 20.5178 36.4837 19.3489C36.5557 18.3925 36.5197 18.2685 35.9977 17.684C35.0257 16.5859 34.3597 16.4265 30.3996 16.3379L26.8896 16.2671L27.3936 16.7099ZM33.3877 17.8257C34.1257 18.1799 34.5397 18.8707 34.5397 19.7739C34.5397 20.2876 34.3957 20.5532 33.8377 21.1023L33.1357 21.793H31.5877H30.0396V19.6677V17.5423H31.4077C32.3077 17.5423 32.9917 17.6486 33.3877 17.8257ZM33.5497 22.8734C35.0617 23.2808 36.1417 24.5914 35.8897 25.725C35.7277 26.4157 34.8097 27.4075 34.0357 27.7263C33.6397 27.9035 32.7937 27.992 31.7317 27.992H30.0396V25.4593C30.0396 24.0601 30.0936 22.8557 30.1656 22.8026C30.3456 22.6078 32.7577 22.6609 33.5497 22.8734Z" fill="#005D69"/>
<path d="M40.0836 16.7099C40.4796 17.1172 40.4796 17.2058 40.4796 22.8557C40.4796 28.5056 40.4796 28.5942 40.0836 29.0015L39.7056 29.4089H41.3436H42.9816L42.5496 28.9661L42.0996 28.541V23.9715L42.1176 19.402L42.6036 19.951C42.8736 20.2344 44.4036 22.0764 46.0056 24.0246C48.6696 27.2835 51.2076 29.9402 51.6396 29.9402C51.7476 29.9402 51.8196 27.6201 51.8196 23.5642V17.2058L52.3056 16.7453L52.8096 16.3025H51.2256C50.3616 16.3025 49.6596 16.3556 49.6596 16.4088C49.6596 16.4619 49.8216 16.639 50.0196 16.7984C50.3796 17.0818 50.3796 17.2589 50.3436 21.5982L50.2896 26.1146L48.4896 23.9007C47.4996 22.6963 45.8976 20.6241 44.9256 19.3134C43.9536 18.0028 43.0536 16.7807 42.9096 16.6036C42.6936 16.3556 42.3516 16.3025 41.1636 16.3025H39.7056L40.0836 16.7099Z" fill="#005D69"/>
<path d="M55.7797 16.4442C55.7797 16.5151 55.9417 16.6745 56.1397 16.7984C56.4817 17.011 56.4997 17.2058 56.4997 22.7495V28.4702L56.0497 28.9484L55.6177 29.4089H57.5257H59.4337L58.9477 28.9484L58.4797 28.4702V22.7495V17.0464L58.9837 16.6745L59.4697 16.3202L57.6337 16.3025C56.6077 16.3025 55.7797 16.3557 55.7797 16.4442Z" fill="#005D69"/>
<path d="M19.2219 19.6145C18.2679 20.199 17.9079 21.4565 18.3579 22.6255C18.6099 23.2808 20.0679 24.7508 20.8959 25.1759C21.5979 25.5301 22.4079 25.601 22.8039 25.3707C22.9659 25.2467 23.0199 24.6091 22.9839 22.7494L22.9299 20.2876L22.0299 19.8094C21.0039 19.2426 19.9239 19.1717 19.2219 19.6145Z" fill="#F15923"/>
<path d="M9.15967 25.353C9.15967 28.3285 9.21367 29.0547 9.39367 28.9307C11.1397 27.6201 12.9397 26.1323 12.9037 26.0261C12.8317 25.8667 9.28567 21.6159 9.21367 21.6159C9.17767 21.6159 9.15967 23.2985 9.15967 25.353Z" fill="#F15923"/>
<path d="M16.0359 25.477L15.4419 25.9552L16.4319 26.9648C17.4039 27.9566 18.3759 28.5234 19.1139 28.5234C19.4739 28.5234 19.4739 28.5411 19.0599 28.9662L18.6459 29.4089H20.8239H23.0199V27.992C23.0199 27.2127 22.9659 26.5751 22.8939 26.5751C22.8039 26.5751 22.5879 26.6991 22.4079 26.8408C22.1919 27.0002 21.6339 27.1065 20.9679 27.1065C19.7079 27.1065 18.7539 26.7168 17.5659 25.6895C17.1159 25.2999 16.7199 24.9811 16.6839 24.9811C16.6659 24.9811 16.3599 25.2113 16.0359 25.477Z" fill="#F15A23"/>
<path d="M12.4179 28.2222L11.0859 29.3203L12.2919 29.3735C12.9399 29.4089 14.0019 29.4089 14.6319 29.3735L15.7839 29.3203L14.8659 28.2222C14.3439 27.62 13.8939 27.1241 13.8399 27.1241C13.7859 27.1241 13.1559 27.6023 12.4179 28.2222Z" fill="#F15A23"/>
</svg>
