<svg width="62" height="62" viewBox="0 0 62 62" fill="none" xmlns="http://www.w3.org/2000/svg">
<path d="M60.668 31C60.668 47.385 47.385 60.668 31 60.668C14.615 60.668 1.33203 47.385 1.33203 31C1.33203 14.615 14.615 1.33203 31 1.33203C47.385 1.33203 60.668 14.615 60.668 31Z" fill="#30D6CE"/>
<path d="M58.3672 21.918C58.3672 22.5868 57.8251 23.1289 57.1562 23.1289C56.4874 23.1289 55.9453 22.5868 55.9453 21.918C55.9453 11.9022 47.797 3.75391 37.7812 3.75391H24.2188C14.203 3.75391 6.05469 11.9022 6.05469 21.918C6.05469 22.5868 5.5126 23.1289 4.84375 23.1289C4.1749 23.1289 3.63281 22.5868 3.63281 21.918C3.63281 10.5668 12.8676 1.33203 24.2188 1.33203H37.7812C49.1324 1.33203 58.3672 10.5668 58.3672 21.918Z" fill="#025F80"/>
<path d="M62 19.2235V24.0672C62 26.0733 60.3737 27.7001 58.3672 27.7001H56.9141C56.9141 28.3046 56.372 28.7951 55.7031 28.7951C55.0343 28.7951 54.4922 28.3046 54.4922 27.7001H52.3125C51.6436 27.7001 51.1016 27.158 51.1016 26.4891V16.8016C51.1016 16.1328 51.6436 15.5907 52.3125 15.5907H54.1171L53.7221 14.5051C53.3792 13.5624 53.865 12.5198 54.8077 12.1769C55.7504 11.8339 56.7925 12.3197 57.1359 13.2625L57.9831 15.5907H58.3672C60.3737 15.5907 62 17.2174 62 19.2235ZM9.6875 15.5907H7.88292L8.27789 14.5051C8.62083 13.5624 8.13504 12.5198 7.19231 12.1769C6.24957 11.8339 5.2075 12.3197 4.86409 13.2625L4.01691 15.5907H3.63281C1.62625 15.5907 0 17.2174 0 19.2235V24.0672C0 26.0733 1.62625 27.7001 3.63281 27.7001H9.6875C10.3564 27.7001 10.8984 27.158 10.8984 26.4891V16.8016C10.8984 16.1328 10.3564 15.5907 9.6875 15.5907Z" fill="#FF6466"/>
<path d="M58.3672 19.2236V24.0674C58.3672 26.0735 56.7409 27.7002 54.7344 27.7002H52.3125C51.6436 27.7002 51.1016 27.1581 51.1016 26.4893V16.8018C51.1016 16.1329 51.6436 15.5908 52.3125 15.5908H54.7344C56.7409 15.5908 58.3672 17.2175 58.3672 19.2236ZM3.63281 24.0674V19.2236C3.63281 17.7237 4.54243 16.4366 5.83994 15.8822C5.89622 15.8586 5.93359 15.8042 5.93359 15.7431C5.93359 15.6589 5.86548 15.5908 5.78175 15.5908H3.63281C1.62625 15.5908 0 17.2175 0 19.2236V24.0674C0 26.0739 1.62625 27.7002 3.63281 27.7002H7.26562C5.25906 27.7002 3.63281 26.0735 3.63281 24.0674Z" fill="#FF393A"/>
<path d="M34.6328 41.1416C34.6328 43.8165 33.0066 45.9854 31 45.9854C28.9934 45.9854 27.3672 43.8165 27.3672 41.1416C27.3672 38.4667 28.9934 36.2979 31 36.2979C33.0066 36.2979 34.6328 38.4667 34.6328 41.1416Z" fill="#0069A3"/>
<path d="M34.6328 41.1417C34.6328 43.1279 33.736 44.8336 32.4531 45.581C31.1703 44.8336 30.2734 43.1279 30.2734 41.1417C30.2734 39.1555 31.1703 37.4498 32.4531 36.7024C33.736 37.4498 34.6328 39.1555 34.6328 41.1417Z" fill="#0088CC"/>
<path d="M54.1289 22.3721C54.1289 31.7351 46.5388 39.3252 37.1758 39.3252H24.8242C15.4612 39.3252 7.87109 31.7351 7.87109 22.3721C7.87109 13.0091 15.4612 5.41895 24.8242 5.41895H37.1758C46.5388 5.41895 54.1289 13.0091 54.1289 22.3721ZM37.7812 41.7471H24.2188C17.6215 41.7471 11.9055 45.5156 9.10379 51.0178C14.5284 56.9476 22.3295 60.668 31 60.668C39.6705 60.668 47.4716 56.9476 52.8962 51.0178C50.0945 45.5156 44.3785 41.7471 37.7812 41.7471Z" fill="#97F0F2"/>
<path d="M37.1757 39.3252H29.5444C20.1814 39.3252 12.5913 31.7351 12.5913 22.3721C12.5913 13.0091 20.1814 5.41895 29.5444 5.41895H37.1757C46.5387 5.41895 54.1288 13.0091 54.1288 22.3721C54.1288 31.7351 46.5387 39.3252 37.1757 39.3252ZM30.9999 60.668C39.6704 60.668 47.4715 56.9476 52.8961 51.0178C50.0944 45.5156 44.3784 41.7471 37.7812 41.7471H29.0624C21.2084 41.7471 14.6035 47.088 12.6783 54.3361C17.7227 58.3024 24.0853 60.668 30.9999 60.668Z" fill="#C0FBFF"/>
<path d="M41.8984 55.0977C41.8984 56.4188 41.6629 57.6841 41.2319 58.8558C38.0424 60.028 34.5959 60.5469 31 60.5469C27.4041 60.5469 23.9576 60.028 20.7681 58.8558C20.3371 57.6841 20.1016 56.4188 20.1016 55.0977C20.1016 49.0784 24.9808 44.1992 31 44.1992C37.0192 44.1992 41.8984 49.0784 41.8984 55.0977Z" fill="#0088CC"/>
<path d="M38.9922 32.665H23.0078C18.3263 32.665 14.5312 28.87 14.5312 24.1885V20.5557C14.5312 15.8742 18.3263 12.0791 23.0078 12.0791H38.9922C43.6737 12.0791 47.4688 15.8742 47.4688 20.5557V24.1885C47.4688 28.87 43.6737 32.665 38.9922 32.665ZM27.248 57.8383C24.6965 57.2693 22.8375 55.0352 22.8262 52.4208C22.8262 52.4047 22.8262 52.3891 22.8262 52.373C22.8262 50.0595 23.5475 47.9148 24.7769 46.15C21.9511 48.1192 20.1016 51.392 20.1016 55.0977C20.1016 56.4188 20.3371 57.6841 20.7681 58.8558C23.9576 60.028 27.4041 60.668 31 60.668C34.595 60.668 38.04 60.0284 41.2286 58.8572C41.3928 58.4102 41.5314 57.9509 41.6369 57.4784C39.1175 58.1747 36.4653 58.5488 33.7246 58.5488C31.5 58.5488 29.3326 58.3033 27.248 57.8383Z" fill="#006CBC"/>
<path d="M38.9922 32.665H26.6406C21.9591 32.665 18.1641 28.87 18.1641 24.1885V20.5557C18.1641 15.8742 21.9591 12.0791 26.6406 12.0791H38.9922C43.6737 12.0791 47.4688 15.8742 47.4688 20.5557V24.1885C47.4688 28.87 43.6737 32.665 38.9922 32.665Z" fill="#0088CC"/>
<path d="M34.4254 25.7845C34.8984 26.2575 34.8984 27.0238 34.4254 27.4968C32.5366 29.3856 29.4638 29.3856 27.5751 27.4968C27.1025 27.0242 27.1025 26.2575 27.5751 25.7845C28.0481 25.3114 28.8148 25.3114 29.2879 25.7845C30.232 26.7286 31.7684 26.7286 32.713 25.7845C32.9495 25.5479 33.2594 25.4297 33.5692 25.4297C33.879 25.4297 34.1889 25.5479 34.4254 25.7845ZM27.3892 18.3694C25.5004 16.481 22.4272 16.481 20.5388 18.3694C20.0658 18.8424 20.0658 19.6091 20.5388 20.0822C21.0119 20.5547 21.7786 20.5547 22.2517 20.0822C23.1958 19.1375 24.7322 19.1375 25.6763 20.0822C25.9129 20.3187 26.2227 20.4369 26.5325 20.4369C26.8423 20.4369 27.1526 20.3187 27.3892 20.0822C27.8617 19.6091 27.8617 18.8424 27.3892 18.3694ZM41.4616 18.3694C39.5728 16.481 36.5 16.481 34.6113 18.3694C34.1387 18.8424 34.1387 19.6091 34.6113 20.0822C35.0843 20.5547 35.8511 20.5547 36.3241 20.0822C37.2682 19.1375 38.8046 19.1375 39.7492 20.0822C39.9857 20.3187 40.2956 20.4369 40.6054 20.4369C40.9152 20.4369 41.2251 20.3187 41.4616 20.0822C41.9346 19.6091 41.9346 18.8424 41.4616 18.3694Z" fill="#30D6CE"/>
<path d="M32.8164 54.25V60.6131C32.2152 60.6495 31.6102 60.668 31 60.668C30.3898 60.668 29.7848 60.6495 29.1836 60.6131V54.25C29.1836 53.2467 29.9967 52.4336 31 52.4336C32.0033 52.4336 32.8164 53.2467 32.8164 54.25Z" fill="#84DEEA"/>
<path d="M32.8164 54.25V56.9141C32.8164 57.9173 32.0033 58.7305 31 58.7305C29.9967 58.7305 29.1836 57.9173 29.1836 56.9141V54.25C29.1836 53.2467 29.9967 52.4336 31 52.4336C32.0033 52.4336 32.8164 53.2467 32.8164 54.25ZM31 50.9805C32.2038 50.9805 33.1797 50.0046 33.1797 48.8008C33.1797 47.5969 32.2038 46.6211 31 46.6211C29.7962 46.6211 28.8203 47.5969 28.8203 48.8008C28.8203 50.0046 29.7962 50.9805 31 50.9805Z" fill="#FFF5F5"/>
<path d="M56.9141 27.7002V30.1221C56.9141 32.7928 54.741 34.9658 52.0703 34.9658H31.4844V32.5439H52.0703C53.4057 32.5439 54.4922 31.4574 54.4922 30.1221V27.7002H56.9141Z" fill="#025F80"/>
<path d="M34.9895 35.6148H27.0105C25.8701 35.6148 24.9453 34.69 24.9453 33.5496C24.9453 32.4091 25.8701 31.4844 27.0105 31.4844H34.9895C36.1299 31.4844 37.0547 32.4091 37.0547 33.5496C37.0547 34.6905 36.1299 35.6148 34.9895 35.6148Z" fill="#FF6466"/>
<path d="M34.9895 35.6148H30.6433C29.5029 35.6148 28.5781 34.69 28.5781 33.5496C28.5781 32.4091 29.5029 31.4844 30.6433 31.4844H34.9895C36.1299 31.4844 37.0547 32.4091 37.0547 33.5496C37.0547 34.6905 36.1299 35.6148 34.9895 35.6148Z" fill="#FF895A"/>
</svg>
