<svg width="68" height="46" viewBox="0 0 68 46" fill="none" xmlns="http://www.w3.org/2000/svg">
<rect width="68" height="46" fill="white"/>
<path d="M25.1601 7.30194C23.7171 7.56194 22.6154 8.76444 22.4626 10.2432C22.4204 10.6819 22.4171 26.9677 22.4626 27.3934C22.5471 28.1994 22.8559 28.8592 23.4051 29.4182C23.8114 29.8277 24.2599 30.0974 24.8579 30.2827L25.1439 30.3737L33.9026 30.3834C41.8163 30.3899 42.6873 30.3867 42.9213 30.3412C43.6136 30.2014 44.1271 29.9219 44.6276 29.4182C45.1638 28.8787 45.4726 28.2514 45.5701 27.5137C45.5961 27.2959 45.6026 25.0632 45.5961 18.6412C45.5831 10.7242 45.5798 10.0449 45.5278 9.84344C45.1931 8.49794 44.1693 7.52944 42.8433 7.29869C42.4533 7.23044 25.5404 7.23369 25.1601 7.30194ZM34.4388 9.53469C35.2026 9.54769 35.2708 9.55419 35.5763 9.63544C37.0681 10.0384 38.1601 11.2247 38.1601 12.4369C38.1601 12.8789 38.0496 13.2397 37.7993 13.6102C37.7441 13.6947 36.5513 14.9134 35.1506 16.3174L32.6058 18.8687L32.9178 19.1937C33.0868 19.3724 33.5451 19.8404 33.9318 20.2337C34.3186 20.6269 35.3813 21.7092 36.2913 22.6387C37.8318 24.2117 38.3161 24.7057 40.3863 26.8149C40.8153 27.2537 41.2833 27.7314 41.4263 27.8809L41.6863 28.1474L36.9576 28.1442C32.8301 28.1409 32.2548 28.1344 32.4401 28.0954C33.3403 27.9037 34.0553 27.0619 34.3121 25.8887C34.4031 25.4694 34.3901 24.7479 34.2861 24.2962C34.1463 23.6949 33.8733 23.1359 33.4866 22.6679C33.3826 22.5379 32.6123 21.7189 31.7738 20.8479C30.0903 19.0962 29.9018 18.8979 29.8953 18.8752C29.8888 18.8557 30.1098 18.6217 30.9126 17.7962C31.6568 17.0324 33.3403 15.2937 33.6946 14.9264C33.8538 14.7574 34.0618 14.5169 34.1593 14.3902C34.3771 14.1009 34.6273 13.5874 34.7183 13.2462C34.8061 12.9147 34.8386 12.2127 34.7801 11.8812C34.6111 10.9322 34.0001 10.0352 33.2721 9.66794C33.1486 9.60944 33.0283 9.55744 33.0056 9.55744C32.9796 9.55744 32.9601 9.54769 32.9601 9.53144C32.9601 9.51844 33.1096 9.51194 33.2916 9.51519C33.4768 9.52169 33.9936 9.52819 34.4388 9.53469ZM41.9561 9.56069C42.3981 9.64844 42.9051 10.0384 43.1228 10.4512C43.3438 10.8737 43.3276 10.2399 43.3276 18.7094V26.3762L43.0286 26.0674C42.8661 25.8984 42.3948 25.4142 41.9821 24.9949C41.5693 24.5757 40.8283 23.8217 40.3376 23.3212C38.7288 21.6799 37.7343 20.6692 36.8503 19.7689L35.9761 18.8849L36.0833 18.7614C36.1386 18.6964 36.6488 18.1667 37.2143 17.5849C40.3441 14.3707 40.3051 14.4129 40.5781 13.8669C40.6593 13.7044 40.7666 13.4314 40.8153 13.2624C40.8966 12.9829 40.9063 12.9082 40.9031 12.4337C40.9031 11.8584 40.8543 11.6017 40.6561 11.1207C40.3766 10.4512 39.7331 9.77844 39.1936 9.58669C39.1253 9.56394 39.0701 9.53794 39.0701 9.52494C39.0701 9.49244 41.7806 9.52494 41.9561 9.56069ZM29.1771 9.57369C29.9896 9.71669 30.7338 10.1132 31.2863 10.6982C32.1118 11.5724 32.2971 12.6059 31.7836 13.4867C31.7056 13.6199 30.9581 14.3902 29.0861 16.2687L26.4958 18.8687L27.0678 19.4699C27.3831 19.8014 27.7796 20.2174 27.9518 20.3962C28.5401 21.0072 29.7166 22.2389 30.5908 23.1619C31.2571 23.8639 31.4976 24.3644 31.5041 25.0599C31.5073 25.4889 31.4456 25.7522 31.2376 26.1812C30.8021 27.0814 29.9376 27.7542 28.8326 28.0597C28.6148 28.1182 28.4751 28.1279 27.4903 28.1409C26.7298 28.1507 26.3236 28.1409 26.1643 28.1149C25.6606 28.0304 25.1601 27.6664 24.9196 27.2082C24.6889 26.7694 24.7051 27.3999 24.7051 18.8492C24.7051 13.5062 24.7149 11.0687 24.7409 10.9354C24.8514 10.3244 25.3941 9.74269 26.0083 9.57694C26.2716 9.50544 28.7708 9.50544 29.1771 9.57369Z" fill="#2F51A1"/>
<path d="M14.8252 36.955V39.815H16.1674C17.5324 39.815 17.9062 39.789 18.3027 39.672C19.0567 39.4478 19.4369 38.9278 19.4012 38.177C19.3817 37.8 19.2939 37.566 19.0827 37.3353C18.9039 37.1403 18.6667 36.9973 18.3872 36.9225L18.1987 36.8705L18.3547 36.8088C18.7187 36.6755 19.0242 36.409 19.1509 36.1295C19.2354 35.9378 19.2777 35.5965 19.2452 35.369C19.1639 34.7808 18.8779 34.4428 18.3059 34.2445C17.9062 34.108 17.7144 34.095 16.2324 34.095H14.8252V36.955ZM17.3277 35.1675C17.6104 35.2683 17.7502 35.46 17.7502 35.7363C17.7502 35.9313 17.6884 36.071 17.5454 36.1978C17.3829 36.3408 17.2497 36.3733 16.7524 36.3928L16.3202 36.4123V35.7525V35.0928L16.7687 35.1123C17.0124 35.1188 17.2659 35.1448 17.3277 35.1675ZM17.3732 37.4588C17.7372 37.553 17.8607 37.709 17.8639 38.0763C17.8639 38.2583 17.8477 38.3265 17.7892 38.424C17.6332 38.6743 17.3244 38.775 16.7199 38.775H16.3202V38.0925V37.41H16.7524C17.0352 37.41 17.2497 37.4263 17.3732 37.4588Z" fill="#2F51A1"/>
<path d="M21.7799 34.1243C21.7799 34.1438 21.3184 35.3755 20.7529 36.864C20.1874 38.3525 19.7064 39.6265 19.6804 39.6915L19.6382 39.815H20.3824H21.1299L21.1722 39.711C21.1982 39.6525 21.2957 39.3795 21.3899 39.1065L21.5622 38.6125H22.6737H23.7884L23.9347 39.0415C24.0127 39.2788 24.1037 39.5518 24.1362 39.6428L24.1914 39.815H25.0007C25.4459 39.815 25.8099 39.8085 25.8099 39.802C25.8099 39.7923 25.7124 39.5323 25.5954 39.2235C25.4784 38.9148 25.2087 38.1998 24.9974 37.6375C24.7862 37.0753 24.4124 36.0873 24.1687 35.4438C23.9249 34.8003 23.7104 34.2348 23.6909 34.1828L23.6584 34.095H22.7192C22.1569 34.095 21.7799 34.108 21.7799 34.1243ZM23.0637 36.4383C23.2522 36.9973 23.4049 37.4685 23.4049 37.4815C23.4049 37.4978 23.0767 37.5075 22.6737 37.5075H21.9424L21.9782 37.4165C21.9977 37.3678 22.0919 37.1013 22.1862 36.825C22.3747 36.2758 22.6152 35.5868 22.6639 35.4633C22.6802 35.421 22.6997 35.3918 22.7094 35.4015C22.7159 35.4113 22.8784 35.876 23.0637 36.4383Z" fill="#2F51A1"/>
<path d="M26.1675 36.955V39.815H26.85H27.5325V38.0503C27.5325 36.344 27.5227 36.0873 27.4187 35.3138C27.409 35.2423 27.461 35.3593 27.5325 35.5738C27.6137 35.8143 27.903 36.461 28.2865 37.2475C28.6277 37.9528 29.0437 38.8205 29.216 39.1715L29.5247 39.815H30.4802H31.4325V36.955V34.095H30.7435H30.0512L30.0707 36.1328C30.0837 37.3158 30.1065 38.2485 30.126 38.3525C30.191 38.6938 30.1617 38.658 30.009 38.2225C29.8367 37.735 29.7815 37.6115 28.787 35.5575L28.085 34.1113L27.1262 34.1015L26.1675 34.095V36.955Z" fill="#2F51A1"/>
<path d="M32.5376 36.955V39.815H33.2851H34.0326V38.4988C34.0326 37.774 34.0424 37.1825 34.0586 37.1825C34.0716 37.1825 34.4779 37.7708 34.9589 38.4858C35.4431 39.204 35.8526 39.7955 35.8689 39.802C35.8884 39.8118 36.3141 39.8118 36.8211 39.8085L37.7377 39.7988L36.5839 38.2583C35.5796 36.9128 35.4366 36.708 35.4756 36.6658C35.5601 36.565 37.4679 34.1698 37.4907 34.134C37.5069 34.1048 37.3087 34.095 36.6684 34.095H35.8266L35.0856 35.1253C34.6794 35.694 34.2894 36.2433 34.2146 36.344C34.1399 36.448 34.0716 36.5325 34.0586 36.5325C34.0424 36.5325 34.0326 35.9833 34.0326 35.3138V34.095H33.2851H32.5376V36.955Z" fill="#2F51A1"/>
<path d="M40.7275 36.955V39.815H42.0698C43.4933 39.815 43.8345 39.789 44.27 39.6493C44.738 39.4998 45.0728 39.2105 45.2158 38.8335C45.284 38.658 45.2938 38.5735 45.2938 38.2388C45.2938 37.878 45.2873 37.8325 45.1995 37.6473C45.0403 37.3028 44.712 37.0395 44.2895 36.9225L44.101 36.8705L44.2895 36.7958C44.9363 36.552 45.271 35.9703 45.1475 35.2975C45.05 34.7613 44.7543 34.4298 44.2083 34.2413C43.8215 34.1113 43.5973 34.095 42.1283 34.095H40.7275V36.955ZM43.23 35.1675C43.5128 35.2683 43.6525 35.46 43.6525 35.7428C43.6525 36.2043 43.321 36.4025 42.541 36.4025H42.2225V35.7493V35.0928L42.671 35.1123C42.9148 35.1188 43.1683 35.1448 43.23 35.1675ZM43.2658 37.4555C43.3665 37.4783 43.4965 37.5303 43.555 37.5725C43.7663 37.7253 43.8443 38.099 43.7208 38.3753C43.5908 38.6548 43.2658 38.775 42.6223 38.775H42.2225V38.0925V37.41H42.6548C42.8953 37.41 43.165 37.4295 43.2658 37.4555Z" fill="#2F51A1"/>
<path d="M46.2202 36.955V39.815H46.9677H47.7152V38.6905V37.5628L48.037 37.5823C48.2872 37.5953 48.3944 37.6148 48.5147 37.6765C48.7584 37.7968 48.8494 37.9593 49.0964 38.736C49.2134 39.1065 49.3402 39.4998 49.3759 39.6103L49.4442 39.815H50.2339H51.0269L50.9977 39.724C50.9847 39.6753 50.9489 39.5778 50.9229 39.5063C50.8937 39.4348 50.7377 39.0025 50.5752 38.5475C50.4094 38.0925 50.2469 37.6603 50.2112 37.5888C50.0909 37.3548 49.9219 37.15 49.7692 37.0623L49.6229 36.9745L49.8147 36.9128C50.2437 36.7698 50.5557 36.4675 50.6759 36.0678C50.7767 35.7395 50.7572 35.2293 50.6304 34.9563C50.4257 34.5143 50.0064 34.2543 49.3077 34.1405C49.1029 34.108 48.6707 34.095 47.6275 34.095H46.2202V36.955ZM48.4302 35.1058C48.9112 35.1643 49.1419 35.3138 49.2297 35.616C49.2882 35.8175 49.2687 36.0515 49.1777 36.1978C49.0184 36.461 48.7194 36.565 48.115 36.565H47.7152V35.8403C47.7152 35.4405 47.725 35.1025 47.738 35.0928C47.7705 35.0603 48.1215 35.0668 48.4302 35.1058Z" fill="#2F51A1"/>
<path d="M51.6802 36.955V39.815H52.4439H53.2077V36.955V34.095H52.4439H51.6802V36.955Z" fill="#2F51A1"/>
</svg>
