<svg width="102" height="58" viewBox="0 0 102 58" fill="none" xmlns="http://www.w3.org/2000/svg">
<rect width="102" height="58" fill="white"/>
<path fill-rule="evenodd" clip-rule="evenodd" d="M2 12.001H100V47.9988H2V12.001Z" fill="white"/>
<path fill-rule="evenodd" clip-rule="evenodd" d="M6.35214 14.2534H95.6476C96.903 14.2534 97.9295 15.3311 97.9295 16.6489V24.0409H86.7543C86.1673 17.3471 56.7382 15.9206 51.653 15.8809C43.4548 15.8164 15.2186 17.8084 15.2186 23.9111V24.0409H4.07031V16.6489C4.07031 15.3311 5.09681 14.2534 6.35214 14.2534V14.2534Z" fill="#FF0000"/>
<path fill-rule="evenodd" clip-rule="evenodd" d="M15.2106 34.9833H4.07031V25.0451H15.2164C15.207 28.1591 15.1663 31.9773 15.2106 34.9833ZM97.9295 25.0451V34.9833H86.7797C86.8676 31.8761 86.67 28.1801 86.7419 25.0451H97.9295Z" fill="#0000FF"/>
<path fill-rule="evenodd" clip-rule="evenodd" d="M97.9295 35.9877V43.3512C97.9295 44.6689 96.903 45.7467 95.6476 45.7467H6.35214C5.09681 45.7467 4.07031 44.6689 4.07031 43.3512V35.9877H15.2855C16.6628 42.0027 39.792 44.3659 51.3631 44.4327C57.881 44.4702 85.0158 42.3304 86.6802 35.9877H97.9295V35.9877Z" fill="#F9CD09"/>
<path fill-rule="evenodd" clip-rule="evenodd" d="M51.5149 17.6366C57.8708 17.6973 85.0943 20.5533 84.8437 24.0986C84.6337 27.0753 85.0609 32.8473 84.8437 35.8241C84.5916 39.2741 57.6775 42.2906 51.3428 42.2351C44.514 42.1758 17.2498 39.8426 17.1379 35.5046C17.0616 32.5218 17.1379 27.4106 17.1379 24.4271C17.1379 19.9991 44.5808 17.5713 51.5149 17.6366V17.6366ZM51.4866 20.3538C44.9397 20.3021 19.0274 21.9333 19.0274 25.3826C19.0274 27.7076 18.957 32.2991 19.0274 34.6233C19.1321 38.0898 44.8765 39.4721 51.3239 39.5186C57.3056 39.5613 82.718 37.5596 82.9563 34.8716C83.1612 32.5526 82.758 27.5336 82.9563 25.2138C83.1924 22.4523 57.4879 20.4003 51.4866 20.3538V20.3538Z" fill="#E6252D"/>
<path fill-rule="evenodd" clip-rule="evenodd" d="M40.666 30.3206C41.0002 30.4759 40.9363 31.3121 40.5236 32.1821C40.111 33.0514 39.5022 33.6334 39.1673 33.4781C38.8332 33.3221 38.8971 32.4859 39.3097 31.6159C39.7223 30.7466 40.3311 30.1646 40.666 30.3206V30.3206ZM63.3172 30.3956C63.6513 30.5516 63.5881 31.3879 63.1755 32.2571C62.7629 33.1264 62.1534 33.7084 61.8192 33.5531C61.4843 33.3971 61.5482 32.5616 61.9609 31.6916C62.3735 30.8224 62.983 30.2404 63.3172 30.3956V30.3956ZM74.4364 30.1511C74.6195 30.2944 74.4546 30.8404 74.0688 31.3669C73.6831 31.8934 73.2196 32.2061 73.0373 32.0636C72.8542 31.9211 73.0191 31.3751 73.4049 30.8486C73.7906 30.3221 74.2534 30.0086 74.4364 30.1511ZM74.6711 29.0246C73.3998 28.9241 72.5484 29.8354 72.1023 30.7346C71.7485 31.4479 71.6432 32.4731 71.896 33.3289C71.5299 33.6349 71.0722 33.8989 70.345 34.0489C69.9839 34.1231 69.7849 33.8411 69.7885 33.5824C69.7972 32.8369 69.875 32.2129 70.082 31.5139C70.167 31.2251 70.4569 31.3234 70.5549 31.0789C70.7569 30.5719 70.7816 30.0821 70.1336 30.1624C69.7181 30.2134 69.2669 30.2786 69.2509 29.6974C69.2357 29.1304 69.9069 28.8274 69.8067 28.7779C69.4362 28.5941 69.1231 28.7764 68.7359 28.6339C68.6276 28.5941 68.7163 28.3399 68.6073 28.3016C68.4591 28.2514 68.1983 28.4126 68.1133 28.5469C67.9259 28.8439 67.9418 29.1146 67.8024 29.4649C67.6861 29.7581 67.6738 30.0844 67.6099 30.3949C67.4079 31.0054 66.1271 32.8969 65.1864 33.3904C64.6575 33.6671 64.3248 33.4234 64.4882 32.8534C64.7069 32.0921 65.4326 30.2396 65.9041 28.9331C65.4428 28.9444 65.0338 28.9819 64.5725 28.9931C64.5187 29.1589 64.4388 29.2721 64.3858 29.4379C63.352 28.7546 62.7229 29.0164 61.7851 29.7131C61.0862 30.2321 60.4738 31.0166 60.144 31.9564C60.0132 32.3291 59.9413 32.7071 59.9319 33.0611C59.3609 33.2741 58.7935 33.5899 58.2842 33.5119C58.16 33.4924 58.075 33.2966 58.1033 33.1699C58.2741 32.4101 58.6344 31.7074 58.8567 30.9619C58.9962 30.4939 59.2744 30.0139 59.188 29.5316C59.0717 28.8829 58.2697 28.8634 57.8324 29.0966C57.4619 29.2954 57.1786 29.6426 56.8088 29.8429C56.7347 29.8826 56.6293 29.8384 56.5676 29.7806C56.4085 29.6321 56.3329 29.4034 56.176 29.2526C56.0373 29.1191 55.8796 28.9804 55.6937 28.9414C55.467 28.8926 55.2156 28.9114 55.0013 29.0029C54.548 29.1979 54.2247 29.7296 53.7366 29.7806C53.5252 29.8031 53.661 29.3276 53.5252 29.1589C53.199 28.7516 52.8859 28.8926 52.5016 29.0651C51.7119 29.4191 50.931 29.7956 50.1471 30.1624C50.2241 30.3259 50.2902 30.4961 50.3433 30.6724C50.6564 30.5614 50.9796 30.4204 51.2971 30.3401C51.4431 30.3034 51.6211 30.2261 51.7482 30.3094C51.8637 30.3844 51.9095 30.5786 51.8688 30.7136C51.4402 32.1386 50.8649 33.5119 50.3629 34.9114C50.8852 34.9009 51.4068 34.8904 51.9291 34.8806C52.4013 33.6259 52.7304 32.3044 53.345 31.1179C53.4554 30.9041 53.7765 30.8216 54.0075 30.8689C54.1659 30.9019 54.2204 31.1396 54.2487 31.3039C54.2836 31.5094 54.2531 31.7284 54.1884 31.9264C53.8593 32.9269 53.4453 33.8951 53.074 34.8806C53.6465 34.8694 54.2487 34.9219 54.8205 34.9114C55.3726 33.6049 55.5898 32.2661 56.2661 31.0241C56.3504 30.8696 56.7943 30.8194 56.9592 30.8689C57.0689 30.9019 57.1938 31.0331 57.1698 31.1486C57.0238 31.8476 56.6497 32.4776 56.4775 33.1699C56.3969 33.4916 56.3293 33.8456 56.4172 34.1644C56.4906 34.4344 56.6867 34.6924 56.9294 34.8184C57.1357 34.9249 57.4081 34.8784 57.6217 34.7869C58.4324 34.4396 59.1836 33.9626 59.9595 33.5374C60.0953 34.4366 60.7215 35.0531 61.9144 34.7801C62.3306 34.6841 62.5573 34.4036 62.9438 34.2154C63.1385 34.8596 63.5693 35.1236 64.2623 34.8296C65.9731 34.1044 66.9756 32.8436 68.2412 30.9529C68.4453 31.0001 68.847 30.8809 69.0512 30.8839C68.8332 31.5641 67.4842 33.9926 68.8942 34.7239C69.288 34.9279 69.5895 34.8611 70.0232 34.7801C70.9974 34.5964 71.5981 34.1696 72.0667 33.7699C72.3043 34.2514 72.6857 34.6354 73.2363 34.8094C74.358 35.1649 75.6409 34.5521 76.4422 34.1869C76.8694 34.9481 77.9707 35.0884 78.6151 34.8461C79.2936 34.5911 79.9067 34.1449 80.4494 33.6506C80.562 33.5479 80.5496 33.2869 80.437 33.1849C80.331 33.0896 80.1544 33.2599 80.0418 33.3469C79.5733 33.7076 78.6339 34.6189 78.1044 33.8539C77.8675 33.5104 78.0252 32.9314 78.2598 32.2751C78.4887 31.6346 78.7095 30.8066 78.9332 30.1646C79.2536 30.1376 79.6125 30.1729 79.9321 30.1459C80.0702 29.7446 80.129 29.4251 80.2678 29.0239C80.052 29.0059 79.7563 29.0291 79.5406 29.0111C79.7403 27.9364 80.1697 26.8421 80.5337 25.7674C80.0433 25.7771 79.6314 25.8071 79.1403 25.8169C78.7959 26.8616 78.525 27.8861 78.0557 28.9316C77.7346 28.9414 77.3931 28.9714 77.0728 28.9811C76.9878 29.3719 76.9028 29.7626 76.8178 30.1534C77.0633 30.1436 77.4077 30.1339 77.6532 30.1241C77.3416 31.3496 77.0023 32.4559 76.3078 33.4054C76.0608 33.7429 75.6329 33.9356 75.2312 34.0204C74.002 34.2806 73.5284 33.8696 73.3329 33.2944C73.8524 32.8451 74.3681 32.6329 74.8353 32.1274C75.5886 31.3136 76.5134 29.1694 74.6711 29.0246V29.0246ZM31.9492 24.2516C29.9979 24.4834 27.1066 24.7046 25.4553 25.8274C24.4833 26.4874 23.6116 27.7556 24.484 29.0464C25.3362 30.3071 26.8588 29.7731 27.4749 28.9346C26.7702 28.8394 26.2079 28.7036 26.1636 28.1824C25.9624 25.8124 28.0604 26.3029 30.0727 25.6249C29.0281 28.1764 28.0873 32.7259 25.4248 33.2876C23.4888 33.6964 22.6003 32.8129 22.1485 31.5686C21.0755 33.7009 22.6098 34.6736 23.9871 34.8926C25.2599 35.0959 26.8901 34.2754 27.7902 33.3026C28.4266 32.8751 29.0622 32.3869 29.6412 31.8326C29.793 31.6871 31.915 30.0101 31.7196 31.3976C31.5467 32.6201 31.0767 33.5119 30.7251 34.6939C31.2474 34.7036 31.7697 34.7141 32.2913 34.7246C32.6727 33.5531 32.9539 32.3419 33.4363 31.2109C33.5205 31.0136 33.7414 30.8681 33.9484 30.8374C34.1402 30.8096 34.4199 30.8696 34.4904 31.0556C34.6146 31.3841 34.438 31.8011 34.3472 32.1409C34.2005 32.6966 33.3883 34.5064 34.4439 34.6451C35.4805 34.7809 36.6458 34.0151 37.2604 33.4999C37.3461 34.0384 37.6207 34.5071 38.1699 34.7771C38.5484 34.9616 39.0169 34.8431 39.4245 34.7471C39.7558 34.6684 40.0275 34.4254 40.3289 34.2649C40.2752 35.0456 40.9973 34.9534 41.4804 34.7164C42.573 34.1809 43.1832 33.8044 43.9293 33.5479C43.8523 33.4091 43.784 33.2651 43.7244 33.1159C43.1876 33.2569 42.6587 33.5254 42.1088 33.4819C41.925 33.4669 41.8756 33.1196 41.9337 32.9396C42.7045 30.5516 43.6845 28.2409 44.5591 25.8911C44.1029 25.9219 43.752 25.9219 43.2944 25.9519C42.9348 26.9554 42.4691 27.9896 42.1088 28.9939C40.3914 28.6691 38.7925 29.1649 37.6744 31.3729C37.4354 31.8446 37.2662 32.3966 37.2349 32.9276C36.8463 33.1909 36.4838 33.4616 36.0261 33.5794C35.8561 33.6236 35.7253 33.3484 35.7551 33.1699C35.8547 32.5766 36.0544 32.0074 36.2484 31.4374C36.3806 31.0481 36.8702 29.9156 36.6886 29.5316C36.3755 28.8671 35.9164 28.8709 35.4507 29.0681C34.8521 29.3224 34.2426 29.8961 33.9179 29.7806C33.4399 29.6104 33.5757 28.8491 32.858 28.9346C32.6313 28.9624 32.401 29.0569 32.2013 29.1589C31.177 29.6801 30.2049 30.4271 29.2264 31.0691C30.1657 29.2039 31.0571 26.7191 31.9492 24.2516Z" fill="#0000FF"/>
<path d="M46.9824 28.1149H46.9838C47.9522 28.1156 48.832 28.5236 49.4691 29.1814V29.1821C50.1055 29.8399 50.5006 30.7474 50.5006 31.7464V31.7479C50.5006 32.7484 50.1055 33.6566 49.4683 34.3144H49.4676C48.8305 34.9714 47.9522 35.3794 46.9838 35.3794H46.9824C46.0133 35.3794 45.1335 34.9714 44.4971 34.3136C43.86 33.6559 43.4648 32.7484 43.4648 31.7486V31.7464C43.4648 30.7466 43.86 29.8384 44.4971 29.1806C45.1343 28.5236 46.0133 28.1156 46.9817 28.1149H46.9824V28.1149ZM46.9838 28.5581H46.9817C46.1317 28.5581 45.3595 28.9166 44.8008 29.4941C44.2407 30.0716 43.8935 30.8689 43.8935 31.7464V31.7486C43.8942 32.6261 44.2407 33.4234 44.8001 34.0009C45.3595 34.5784 46.1324 34.9369 46.9824 34.9369H46.9838C47.8338 34.9361 48.606 34.5784 49.1654 34.0009H49.1647C49.7248 33.4234 50.072 32.6261 50.072 31.7479V31.7464C50.0713 30.8689 49.7248 30.0716 49.1661 29.4941H49.1654C48.606 28.9166 47.8338 28.5581 46.9838 28.5581V28.5581Z" fill="#FF0000"/>
<path fill-rule="evenodd" clip-rule="evenodd" d="M46.9828 28.9998C48.4532 28.9998 49.6446 30.2298 49.6446 31.7471C49.6446 33.2643 48.4532 34.4951 46.9828 34.4951C45.5132 34.4951 44.3218 33.2643 44.3218 31.7471C44.3218 30.2298 45.5132 28.9998 46.9828 28.9998V28.9998ZM46.9828 29.5653C48.1502 29.5653 49.0968 30.5426 49.0968 31.7471C49.0968 32.9523 48.1502 33.9296 46.9828 33.9296C45.8161 33.9296 44.8703 32.9523 44.8703 31.7471C44.8703 30.5426 45.8161 29.5653 46.9828 29.5653V29.5653Z" fill="#FF0000"/>
<path fill-rule="evenodd" clip-rule="evenodd" d="M46.9825 30.1001C47.8637 30.1001 48.5786 30.8373 48.5786 31.7471C48.5786 32.6568 47.8637 33.3948 46.9825 33.3948C46.1013 33.3948 45.3872 32.6568 45.3872 31.7471C45.3872 30.8373 46.1013 30.1001 46.9825 30.1001V30.1001Z" fill="#FF0000"/>
</svg>
