<svg width="74" height="46" viewBox="0 0 74 46" fill="none" xmlns="http://www.w3.org/2000/svg">
<rect width="68" height="46" fill="white"/>
<path d="M44.3585 16.3479C44.345 16.3794 44.3315 17.3429 44.327 18.491L44.3135 20.5711L44.1019 20.283C43.7193 19.7517 43.1971 19.4996 42.4004 19.4591C40.7664 19.3735 39.5105 20.3505 39.0064 22.1065C38.7093 23.133 38.7183 24.6548 39.0244 25.6363C39.3485 26.6809 40.0597 27.4688 40.9104 27.7344C42.1573 28.1171 43.3952 27.7794 44.0749 26.8655L44.3135 26.5458L44.327 27.1131L44.3405 27.6849H45.4388H46.5417V21.9894V16.2939H45.4613C44.6376 16.2939 44.372 16.3074 44.3585 16.3479ZM43.3772 21.3591C43.8543 21.5752 44.219 22.0794 44.336 22.6737C44.417 23.0745 44.372 24.3846 44.2685 24.7133C44.0884 25.2896 43.7463 25.7444 43.3232 25.965C43.1251 26.073 43.0486 26.0865 42.6705 26.0865C42.3194 26.082 42.2068 26.064 42.0358 25.9785C41.7072 25.8209 41.4821 25.6003 41.3066 25.2671C41.104 24.8754 41.005 24.3937 41.005 23.7768C41.005 22.3811 41.5316 21.4311 42.4139 21.2465C42.693 21.188 43.1116 21.2375 43.3772 21.3591Z" fill="#122255"/>
<path d="M13.1775 19.5176C12.5788 19.6617 11.9441 20.0939 11.5795 20.6071L11.3634 20.9088L11.3499 20.265L11.3364 19.6256H10.2381H9.13525V23.6553V27.6849H10.2381H11.3409V25.2626C11.3409 22.6332 11.3544 22.4801 11.593 21.9894C11.7326 21.7057 12.0296 21.4131 12.2772 21.305C12.4978 21.2105 12.9749 21.2105 13.209 21.3095C13.4341 21.4041 13.6636 21.6202 13.7807 21.8498C13.9787 22.237 13.9967 22.4711 13.9967 25.15V27.6849H15.0996H16.2024V25.2491C16.2024 22.5297 16.2114 22.4171 16.4995 21.9353C16.7066 21.5932 16.7921 21.5076 17.0712 21.359C17.2513 21.26 17.3638 21.2285 17.5754 21.2285C18.1425 21.224 18.5386 21.5211 18.7322 22.0974C18.8312 22.3901 18.8357 22.4396 18.8492 25.0375L18.8627 27.6849H19.9611H21.0639V25.051C21.0639 23.5247 21.0459 22.228 21.0189 21.9759C20.8344 20.274 20.0331 19.4455 18.5657 19.4455C17.5979 19.4455 16.8731 19.8057 16.297 20.5756L16.0269 20.9313L15.8783 20.6522C15.5587 20.0444 15.0186 19.6211 14.4109 19.4951C14.0913 19.4275 13.4926 19.4365 13.1775 19.5176Z" fill="#122255"/>
<path d="M24.7327 19.5309C24.08 19.6524 23.5623 19.7965 23.1932 19.9676L22.8646 20.1162V20.9941C22.8646 21.4804 22.8736 21.8766 22.8826 21.8766C22.8916 21.8766 23.0492 21.7865 23.2382 21.674C23.936 21.2508 24.5977 21.0572 25.3629 21.0527C25.786 21.0482 25.8941 21.0662 26.0876 21.1517C26.5152 21.3408 26.7763 21.737 26.7943 22.2233L26.8033 22.4799L25.6555 22.642C24.3186 22.8356 24.125 22.8716 23.7244 23.0337C22.8916 23.3624 22.3605 23.9657 22.1849 24.7806C22.1174 25.1138 22.1174 25.8747 22.1849 26.1764C22.374 26.9733 22.9366 27.5631 23.7424 27.8017C24.1385 27.9188 24.8632 27.9098 25.2729 27.7837C25.8175 27.6171 26.3082 27.2344 26.6278 26.7346C26.7358 26.5591 26.7538 26.55 26.7853 26.6266C26.8033 26.6761 26.8213 26.9327 26.8213 27.1984L26.8258 27.6846H27.8612H28.8965V25.0598C28.8965 22.2233 28.874 21.8766 28.6534 21.2418C28.3518 20.3728 27.7306 19.8055 26.8033 19.5534C26.3802 19.4408 25.2909 19.4273 24.7327 19.5309ZM26.8258 24.2764C26.8258 24.9607 26.6638 25.4155 26.2767 25.8027C25.8535 26.2259 25.1603 26.3519 24.6787 26.0863C24.5436 26.0143 24.3906 25.8837 24.3186 25.7801C24.2015 25.6136 24.1925 25.564 24.1925 25.1813C24.1925 24.7896 24.2015 24.7536 24.3276 24.569C24.5526 24.2493 24.9038 24.1008 25.7455 23.9747C26.1281 23.9162 26.5288 23.8666 26.6368 23.8621L26.8258 23.8576V24.2764Z" fill="#122255"/>
<path d="M34.5048 19.5176C33.9152 19.6617 33.3165 20.0849 32.9699 20.6117C32.8708 20.7602 32.7763 20.8863 32.7583 20.8863C32.7358 20.8863 32.7223 20.6026 32.7223 20.256V19.6256H31.6194H30.5166V23.6553V27.6849H31.6194H32.7178L32.7313 25.1275C32.7493 22.6152 32.7493 22.5702 32.8483 22.3045C33.1319 21.5436 33.7801 21.1204 34.4643 21.242C34.9415 21.332 35.2656 21.6562 35.4366 22.219C35.5267 22.5162 35.5312 22.6467 35.5492 25.105L35.5627 27.6849H36.643H37.7188V24.9249C37.7188 21.6922 37.6918 21.4266 37.3362 20.6702C37.0436 20.0489 36.481 19.6166 35.8102 19.4951C35.4456 19.4275 34.8289 19.441 34.5048 19.5176Z" fill="#122255"/>
<path d="M55.3421 19.5536C54.793 19.6887 54.3338 20.0849 54.0413 20.6882C53.9512 20.8683 53.8792 21.0394 53.8792 21.0619C53.8792 21.0889 53.8612 21.1114 53.8342 21.1114C53.8072 21.1114 53.7892 20.8323 53.7892 20.3685V19.6256H52.6863H51.5835V23.6553V27.6849H52.6818H53.7847L53.8027 25.4202C53.8207 22.9394 53.8207 22.9304 54.1088 22.3631C54.3879 21.8093 54.793 21.5481 55.4097 21.5256C55.7293 21.5121 55.8553 21.5301 56.1209 21.6157L56.445 21.7237V20.6567V19.5851L56.2784 19.5401C56.0579 19.4771 55.6257 19.4861 55.3421 19.5536Z" fill="#122255"/>
<path d="M47.8472 23.6553V27.6849H48.9275H50.0078V23.6553V19.6256H48.9275H47.8472V23.6553Z" fill="#122255"/>
<path d="M57.165 23.6553V27.6849H58.2454H59.3257V23.6553V19.6256H58.2454H57.165V23.6553Z" fill="#122255"/>
</svg>
