<svg width="68" height="46" viewBox="0 0 68 46" fill="none" xmlns="http://www.w3.org/2000/svg">
<rect width="68" height="46" fill="white"/>
<path d="M22.51 8.32518C20.8132 8.54293 18.8416 9.3098 17.2491 10.3702C16.3486 10.9666 14.6897 12.6329 14.083 13.5512C13.1256 14.9903 12.4052 16.7986 12.1209 18.4838C11.9597 19.3926 11.9597 21.4565 12.1209 22.3654C12.4052 24.0506 13.1256 25.8589 14.083 27.298C14.6897 28.2163 16.3486 29.8826 17.2586 30.4885C19.4672 31.956 21.5621 32.5903 24.2163 32.5903C26.2543 32.5903 27.8278 32.2305 29.5246 31.3879C30.8043 30.7536 31.5342 30.2329 32.5769 29.2104C35.0888 26.7394 36.3117 23.8613 36.3117 20.4057C36.3117 18.6447 36.0747 17.4329 35.4396 15.8518C34.2926 13.0116 32.1124 10.7015 29.3445 9.38554C28.2923 8.89323 27.041 8.50506 26.0173 8.35358C25.3822 8.26838 23.1167 8.24944 22.51 8.32518Z" fill="#E30D17"/>
<path d="M41.2991 8.30077C39.6023 8.51852 37.6306 9.28538 36.0381 10.3457C35.1376 10.9422 33.4788 12.6085 32.8721 13.5268C31.9147 14.9659 31.1943 16.7741 30.9099 18.4593C30.7488 19.3682 30.7488 21.4321 30.9099 22.341C31.1943 24.0262 31.9147 25.8345 32.8721 27.2735C33.4788 28.1919 35.1376 29.8582 36.0476 30.4641C38.2563 31.9315 40.3512 32.5659 43.0053 32.5659C45.0433 32.5659 46.6169 32.2061 48.3137 31.3635C49.5933 30.7292 50.3232 30.2085 51.3659 29.186C53.8779 26.715 55.1007 23.8369 55.1007 20.3812C55.1007 18.6203 54.8638 17.4085 54.2286 15.8274C53.0817 12.9872 50.9015 10.6771 48.1336 9.36112C47.0814 8.86881 45.8301 8.48065 44.8064 8.32917C44.1713 8.24396 41.9057 8.22503 41.2991 8.30077Z" fill="#F69F00"/>
<path d="M48.9094 35.0992V35.9039L48.5587 35.7145C47.1083 34.9382 45.639 36.7938 46.568 38.195C46.8145 38.5548 47.497 38.9335 47.9141 38.9335C48.0657 38.9335 48.3406 38.8483 48.5113 38.7441C48.8809 38.5169 48.9094 38.5169 48.9094 38.6968C48.9094 38.7915 49.0137 38.8388 49.2412 38.8388H49.5729V36.5666V34.2944H49.2412H48.9094V35.0992ZM48.5681 36.3867C48.862 36.6139 48.9947 37.0684 48.8999 37.4944C48.8051 37.9205 48.5681 38.1571 48.1795 38.2329C47.5065 38.356 47.0135 37.9015 47.0135 37.1536C47.0135 36.3489 47.933 35.8944 48.5681 36.3867Z" fill="black"/>
<path d="M27.8372 34.6352C27.7993 34.6731 27.7709 34.9098 27.7709 35.1654C27.7709 35.6104 27.7614 35.6199 27.4865 35.6199C27.2306 35.6199 27.2021 35.6483 27.2021 35.9039C27.2021 36.1595 27.2306 36.1879 27.4865 36.1879H27.7709V36.9169C27.7709 37.324 27.8088 37.8163 27.8562 38.0151C28.0268 38.7441 28.643 39.0755 29.4013 38.8483C29.7236 38.7441 29.771 38.6968 29.7236 38.5264C29.6952 38.4128 29.6667 38.2802 29.6667 38.2423C29.6667 38.195 29.4866 38.195 29.2591 38.2234C28.6335 38.3181 28.5103 38.1287 28.5482 37.0778L28.5766 36.2352L29.1264 36.2068C29.6572 36.1784 29.6667 36.169 29.6667 35.9039C29.6667 35.6199 29.6667 35.6199 29.1074 35.6199H28.5387L28.5103 35.1181C28.4818 34.6447 28.4723 34.6258 28.1975 34.5974C28.0363 34.5784 27.8752 34.5974 27.8372 34.6352Z" fill="black"/>
<path d="M15.1066 35.6104C14.9928 35.6577 14.8696 35.743 14.8317 35.7998C14.7464 35.9512 14.5947 35.9228 14.5947 35.7619C14.5947 35.6672 14.4904 35.6199 14.2629 35.6199H13.9312V37.2293V38.8388H14.2534H14.5757L14.6137 37.7406C14.6421 36.6708 14.6516 36.6424 14.9075 36.4151C15.2298 36.1406 15.6279 36.1217 15.9313 36.3678C16.1398 36.5382 16.1588 36.6234 16.1872 37.6932L16.2251 38.8388H16.5474H16.8697V37.7595C16.8697 36.756 16.8792 36.6708 17.1067 36.4341C17.4005 36.1122 17.9124 36.0932 18.1968 36.3962C18.3674 36.5761 18.3864 36.7276 18.3864 37.7216V38.8388H18.7181H19.0499V37.5986C19.0499 36.1974 18.9551 35.9228 18.4053 35.6577C17.9882 35.4589 17.3247 35.5252 16.955 35.7998L16.6801 36.008L16.4052 35.7998C16.1019 35.582 15.4194 35.4779 15.1066 35.6104Z" fill="black"/>
<path d="M20.709 35.6578C20.0644 35.9323 19.6474 36.7655 19.7706 37.5134C19.8559 38.053 20.1592 38.4696 20.6616 38.7158C21.183 38.9808 21.5622 38.9903 21.9698 38.7442C22.3395 38.5169 22.3679 38.5169 22.3679 38.6968C22.3679 38.7915 22.4722 38.8388 22.6997 38.8388H23.0314V37.2294V35.6199H22.6997C22.4816 35.6199 22.3679 35.6672 22.3679 35.7525C22.3679 35.8566 22.2921 35.8471 22.0172 35.7051C21.6096 35.4968 21.1166 35.4779 20.709 35.6578ZM22.0172 36.3773C22.6902 36.9075 22.4627 38.0814 21.638 38.2329C20.9934 38.356 20.4721 37.9016 20.4721 37.2294C20.4721 36.8791 20.6901 36.4246 20.9176 36.2921C21.202 36.1312 21.7517 36.169 22.0172 36.3773Z" fill="black"/>
<path d="M24.4535 35.7051C24.008 35.9323 23.79 36.4909 23.989 36.898C24.1407 37.2104 24.4819 37.4092 25.0033 37.4849C25.7806 37.5891 26.0744 37.8447 25.7616 38.1571C25.6005 38.3181 24.6905 38.2991 24.3587 38.1287C24.1028 37.9962 24.0838 38.0057 23.9416 38.2329C23.7331 38.5358 23.7994 38.6116 24.3777 38.7915C25.5247 39.1323 26.4726 38.782 26.5958 37.9678C26.6432 37.6932 26.6053 37.5796 26.3873 37.3335C26.1692 37.1062 25.9797 37.0116 25.4678 36.9074C24.7379 36.7559 24.5957 36.6707 24.681 36.3962C24.7853 36.0932 25.4299 36.0554 26.0744 36.3204C26.283 36.4151 26.6242 35.9228 26.4347 35.7997C25.9607 35.4968 24.9369 35.44 24.4535 35.7051Z" fill="black"/>
<path d="M31.1266 35.6956C29.8564 36.2921 30.0175 38.3749 31.3636 38.8294C31.9039 39.0092 32.6243 38.9146 33.0319 38.6116C33.2025 38.4885 33.2025 38.4696 33.0508 38.2424C32.8992 38.0152 32.8802 38.0057 32.6338 38.1288C32.4821 38.2045 32.1882 38.2708 31.9607 38.2708C31.629 38.2708 31.4963 38.214 31.2688 37.9962C31.1171 37.8447 30.9939 37.6743 30.9939 37.6175C30.9939 37.5607 31.4299 37.5134 32.1598 37.4944L33.3163 37.466V36.9737C33.3068 35.8755 32.1693 35.2128 31.1266 35.6956ZM32.4157 36.3962C32.52 36.5098 32.6053 36.6802 32.6053 36.7749C32.6053 36.9264 32.5105 36.9453 31.7996 36.9453C30.9086 36.9453 30.8422 36.8885 31.1929 36.4341C31.4489 36.1027 32.1219 36.0838 32.4157 36.3962Z" fill="black"/>
<path d="M35.1363 35.7145C34.8519 35.9418 34.7856 35.9512 34.7856 35.7619C34.7856 35.6672 34.6908 35.6199 34.5012 35.6199H34.2168V37.2293V38.8388H34.4917H34.7666L34.8045 37.7595C34.8329 36.7654 34.8519 36.6518 35.0604 36.4341C35.2311 36.2542 35.3922 36.1879 35.6576 36.1879C35.961 36.1879 36.0368 36.15 36.1126 35.9418C36.1695 35.8092 36.1885 35.6577 36.1506 35.6104C36.0558 35.4495 35.3922 35.5157 35.1363 35.7145Z" fill="black"/>
<path d="M37.3641 35.724C36.7953 36.008 36.5584 36.3867 36.511 37.0968C36.4636 37.7406 36.5868 38.072 37.0323 38.4696C37.5253 38.9335 38.1983 39.0471 38.8618 38.782C39.2695 38.6211 39.3169 38.5075 39.1178 38.2329C39.004 38.072 38.9472 38.072 38.6343 38.1761C37.876 38.4222 37.2693 38.053 37.184 37.2862C37.1366 36.8885 37.1556 36.8317 37.4684 36.5193C37.8286 36.1595 38.2457 36.0838 38.7197 36.3015C38.9282 36.3962 38.9756 36.3867 39.0988 36.2258C39.3074 35.9512 39.2695 35.8471 38.9187 35.6767C38.4732 35.4684 37.8476 35.4873 37.3641 35.724Z" fill="black"/>
<path d="M40.7102 35.6577C40.1604 35.9039 39.7148 36.6139 39.7148 37.2483C39.7148 37.6175 39.9897 38.2518 40.2457 38.479C40.5111 38.7063 41.0798 38.9335 41.4021 38.9335C41.5538 38.9335 41.8382 38.8293 42.0278 38.6968C42.35 38.479 42.369 38.479 42.369 38.6494C42.369 38.8009 42.4354 38.8388 42.7008 38.8388H43.0325V37.2293V35.6199H42.7008C42.4733 35.6199 42.369 35.6672 42.369 35.7619C42.369 35.8755 42.3121 35.8755 42.0183 35.7145C41.6107 35.4968 41.1178 35.4778 40.7102 35.6577ZM42.0183 36.3773C42.6913 36.9074 42.4638 38.0814 41.6391 38.2329C40.9661 38.356 40.4732 37.9015 40.4732 37.1536C40.4732 36.3489 41.3927 35.8944 42.0183 36.3773Z" fill="black"/>
<path d="M44.9378 35.7713C44.6534 36.008 44.6439 36.008 44.6439 35.8187C44.6439 35.6577 44.5871 35.6199 44.3596 35.6199H44.0752V37.2293V38.8388H44.3596H44.6439V37.8447C44.6439 36.4719 44.7956 36.1879 45.5445 36.1879C45.8099 36.1879 45.8762 36.1406 45.9521 35.9134C46.0753 35.5725 46.0279 35.5252 45.5824 35.5252C45.3359 35.5252 45.1369 35.6009 44.9378 35.7713Z" fill="black"/>
<path d="M50.8716 38.4222C50.7294 38.5737 50.8052 38.924 51.0043 38.9808C51.2886 39.0755 51.554 38.8009 51.4119 38.5737C51.2981 38.4033 50.9853 38.3086 50.8716 38.4222ZM51.355 38.6589C51.3929 38.8388 51.0991 38.9808 50.9664 38.8483C50.8337 38.7157 50.9664 38.4412 51.1559 38.479C51.2507 38.498 51.336 38.5737 51.355 38.6589Z" fill="black"/>
<path d="M50.9951 38.6968C50.9951 38.7725 51.0425 38.8388 51.0899 38.8388C51.1468 38.8388 51.1847 38.7725 51.1847 38.6968C51.1847 38.6211 51.1468 38.5548 51.0899 38.5548C51.0425 38.5548 50.9951 38.6211 50.9951 38.6968Z" fill="black"/>
</svg>
