<svg width="68" height="44" viewBox="0 0 68 44" fill="none" xmlns="http://www.w3.org/2000/svg">
<g clip-path="url(#clip0)">
<g filter="url(#filter0_d)">
<mask id="mask0" mask-type="alpha" maskUnits="userSpaceOnUse" x="0" y="0" width="68" height="49">
<path d="M63.4905 0H4.50947C2.01896 0 0 2.02061 0 4.51316V44.098C0 46.5905 2.01896 48.6111 4.50947 48.6111H63.4905C65.981 48.6111 68 46.5905 68 44.098V4.51316C68 2.02061 65.981 0 63.4905 0Z" fill="white"/>
</mask>
<g mask="url(#mask0)">
<path d="M63.4905 0H4.50947C2.01896 0 0 2.02061 0 4.51316V44.098C0 46.5905 2.01896 48.6111 4.50947 48.6111H63.4905C65.981 48.6111 68 46.5905 68 44.098V4.51316C68 2.02061 65.981 0 63.4905 0Z" fill="white"/>
<path fill-rule="evenodd" clip-rule="evenodd" d="M24.3085 13.7952L24.2856 14.2376L32.837 24.1883L33.1442 24.2372L33.1829 24.218L33.333 23.9431L29.6859 11.8346L29.067 11.4208L24.3085 13.7952Z" fill="#0096B8"/>
<path fill-rule="evenodd" clip-rule="evenodd" d="M32.837 24.1883L33.1438 24.2372L26.8376 14.7207L24.2856 14.2376L32.837 24.1883Z" fill="#005675"/>
<path fill-rule="evenodd" clip-rule="evenodd" d="M29.067 11.4208L26.887 13.9665L27.7773 14.3525L29.686 11.835V11.8346L29.067 11.4208Z" fill="#0BBBEF"/>
<path fill-rule="evenodd" clip-rule="evenodd" d="M27.7764 14.3526L33.1828 24.218L33.3329 23.9423L29.6863 11.8355L27.7764 14.3526Z" fill="#007290"/>
<path fill-rule="evenodd" clip-rule="evenodd" d="M37.5501 11.4467L33.8928 27.8215L34.0218 28.1288L34.0831 28.1561L34.4972 28.0485L43.5717 14.4138L43.5616 13.7025L38.0317 11.1807L37.5501 11.4467Z" fill="#81B73E"/>
<path fill-rule="evenodd" clip-rule="evenodd" d="M39.888 14.7253L34.0837 28.1561L34.4969 28.0485L43.5717 14.4138L39.888 14.7253Z" fill="#69931D"/>
<path fill-rule="evenodd" clip-rule="evenodd" d="M33.8926 27.8207L34.022 28.1279L38.8441 14.1553L37.5498 11.4471L33.8926 27.8207Z" fill="#277933"/>
<path fill-rule="evenodd" clip-rule="evenodd" d="M43.561 13.7029L39.679 13.7527L39.8882 14.7256L43.5715 14.4139L43.5615 13.7029H43.561Z" fill="#AECC53"/>
<path fill-rule="evenodd" clip-rule="evenodd" d="M37.55 11.4467L38.843 14.1544L39.6791 13.7529L38.0317 11.1813L37.55 11.4467Z" fill="#69931D"/>
<path fill-rule="evenodd" clip-rule="evenodd" d="M36.8848 6.80554L29.806 6.88114L29.5852 7.30151L33.4965 18.4839L33.7288 18.6389L33.7357 18.64L33.9511 18.5165L37.3423 7.2761L36.8848 6.80554Z" fill="#E4032E"/>
<path fill-rule="evenodd" clip-rule="evenodd" d="M29.5854 7.30151L33.4968 18.4839L33.7278 18.6391L32.3285 8.65536L29.5854 7.30109V7.30151Z" fill="#791B15"/>
<path fill-rule="evenodd" clip-rule="evenodd" d="M33.6592 8.65714L33.7356 18.6398L33.951 18.5155L37.3421 7.27618L33.6592 8.65714Z" fill="#B51227"/>
<path fill-rule="evenodd" clip-rule="evenodd" d="M42.4501 36.981C42.4558 36.8638 42.4625 36.6768 42.4681 36.4212V31.5034L42.453 31.0264C42.4493 30.9253 42.4447 30.8564 42.4397 30.8195C42.4348 30.7812 42.4271 30.7484 42.4165 30.7186C42.3811 30.5975 42.3036 30.5118 42.1872 30.4597C42.0795 30.4121 41.9199 30.3892 41.7134 30.3877V30.2208L44.3836 30.2199C44.7721 30.2216 45.1225 30.2477 45.4354 30.3012C45.7485 30.3532 46.0005 30.4258 46.1935 30.5186C46.7513 30.7973 47.0272 31.2662 47.0241 31.9321C47.0309 32.8856 46.4349 33.4936 45.201 33.6506L44.9941 33.6858C45.2716 33.6966 45.6465 33.7931 45.8214 33.836C45.9947 33.8781 46.1644 33.9447 46.3312 34.0358C46.9857 34.3819 47.3083 34.9347 47.3018 35.7006C47.3049 36.6295 46.8744 37.2329 46.0001 37.5184C45.8094 37.576 45.5696 37.621 45.2803 37.6542C44.9895 37.6871 44.6747 37.7038 44.3341 37.7045H41.7134V37.5369C42.0222 37.5329 42.2344 37.4832 42.3285 37.3669C42.3674 37.3279 42.3954 37.2842 42.4137 37.2344C42.4325 37.184 42.444 37.0973 42.4501 36.981ZM43.2721 30.4505V33.571H44.3142C45.5259 33.5634 46.1535 33.0344 46.16 31.9744C46.1686 30.9451 45.5076 30.4429 44.2249 30.4505H43.2721ZM46.369 35.6164C46.3616 34.8897 46.1119 34.3751 45.6132 34.0871C45.4616 34.0066 45.2695 33.944 45.0383 33.8994C44.8078 33.8551 44.5528 33.8329 44.2744 33.8321H43.2721V37.4749H44.2744C45.0006 37.4781 45.5315 37.3355 45.8585 37.0369C46.0239 36.8929 46.1498 36.699 46.2371 36.4547C46.3241 36.2106 46.3674 35.9303 46.369 35.6164Z" fill="black"/>
<path fill-rule="evenodd" clip-rule="evenodd" d="M51.1236 37.491C51.0693 37.3784 51.0311 37.2443 51.0151 36.9012L51.01 36.8003L50.9459 36.8769C50.8695 36.9664 50.7945 37.046 50.7217 37.1127C50.6478 37.1799 50.562 37.249 50.4662 37.3186C50.2556 37.4818 50.0524 37.5966 49.8578 37.6632C49.6629 37.7299 49.4437 37.7621 49.1991 37.7597C48.7731 37.7621 48.4461 37.6556 48.2124 37.4466C48.0821 37.3232 47.9791 37.1679 47.9038 36.9793C47.8295 36.791 47.7909 36.589 47.7893 36.3714C47.7939 35.5705 48.2612 35.0543 49.2177 34.8253C49.4706 34.7634 49.7379 34.7127 50.0191 34.6736C50.3007 34.6338 50.6208 34.601 50.9779 34.5756L51.0151 33.8773C51.0151 33.6384 51.0045 33.4445 50.9823 33.2975C50.9602 33.1484 50.9234 33.0182 50.8716 32.9086C50.73 32.6177 50.4405 32.4784 50.0226 32.4784C49.3519 32.4743 48.9887 32.8106 48.9508 33.4775C48.9473 33.584 48.9378 33.6592 48.9242 33.7034C48.9115 33.7464 48.8897 33.7777 48.8591 33.8006C48.7921 33.8482 48.6858 33.8751 48.5336 33.8773C48.2045 33.8819 48.0814 33.7793 48.0869 33.6062C48.089 33.4255 48.1462 33.2503 48.2605 33.0816C48.3757 32.9123 48.5354 32.7647 48.742 32.6399C49.1132 32.4232 49.5886 32.3129 50.1716 32.3105C50.8098 32.3129 51.2377 32.4643 51.4713 32.7555C51.5661 32.8773 51.6362 33.0288 51.6814 33.2119C51.7272 33.3942 51.7503 33.6262 51.7499 33.9079L51.749 33.9669L51.7439 34.2403L51.73 34.9618L51.72 35.9532L51.7101 36.4334C51.7112 36.6593 51.72 36.8316 51.7353 37.0245C51.7496 37.2121 51.8135 37.4219 51.9565 37.4771C52.1051 37.5353 52.2486 37.5582 52.5215 37.5599C52.7219 37.5562 52.8762 37.5316 52.9808 37.4849C53.0998 37.4321 53.1734 37.3186 53.2053 37.1579C53.2359 37.0016 53.249 36.7627 53.2461 36.4434V33.6445C53.2527 33.2632 53.2106 32.9953 53.1076 32.8551C53.0065 32.7188 52.8188 32.6597 52.561 32.6629V32.5134L53.981 32.4055V33.5947L54.0549 33.4555C54.2648 33.0625 54.5033 32.7838 54.769 32.6169C55.0342 32.4499 55.3666 32.3664 55.7671 32.3712C56.3696 32.3619 56.7885 32.574 57.0338 32.9982C57.1242 33.1406 57.1893 33.3114 57.2284 33.5121C57.2673 33.7127 57.2874 33.9686 57.2858 34.2808V36.4434C57.2823 36.7658 57.295 37.0062 57.3246 37.1625C57.3552 37.3232 57.4272 37.4358 57.547 37.4871C57.6463 37.5308 57.877 37.5538 58.0735 37.559C58.258 37.5538 58.4003 37.5292 58.498 37.4849C58.6141 37.4312 58.6847 37.3179 58.7144 37.1579C58.7435 37.001 58.7562 36.7627 58.7523 36.4434V31.3588C58.7562 31.0671 58.7444 30.8512 58.7167 30.7118C58.6877 30.566 58.6164 30.4666 58.4998 30.4229C58.3985 30.3855 58.2467 30.3679 58.0476 30.3669V30.2186L59.5243 30.139C59.5058 30.4842 59.4919 30.8364 59.482 31.1971C59.4725 31.5731 59.4676 31.9016 59.4676 32.1827V35.5986L61.0941 33.7242C61.3243 33.4562 61.4503 33.231 61.4523 33.0505C61.4637 32.7992 61.223 32.6858 60.8268 32.6651V32.5166H62.9411V32.6673C62.8142 32.6827 62.7038 32.7073 62.6095 32.741C62.5074 32.7777 62.4026 32.8305 62.2956 32.8986C62.1871 32.9675 62.0957 33.0312 62.0223 33.0886C61.9473 33.1475 61.8587 33.2318 61.7573 33.3405C61.6557 33.4493 61.5078 33.614 61.3141 33.8353L60.7773 34.4432L62.1827 36.769C62.3433 37.0445 62.4909 37.239 62.6265 37.3492C62.7559 37.4551 62.921 37.523 63.1199 37.5553V37.7069H61.8342C61.799 37.6319 61.7502 37.5338 61.6882 37.4136L61.4838 37.0208L61.3271 36.7251L60.2873 34.9425L59.4697 35.9051L59.4676 36.4434C59.4637 36.7627 59.4762 37.0016 59.5058 37.1579C59.5359 37.3186 59.6074 37.4312 59.7254 37.4849C59.8287 37.5316 59.9819 37.5562 60.1816 37.5599V37.7069H55.8366V37.5599C56.1309 37.5514 56.3332 37.501 56.414 37.3875C56.4464 37.344 56.4711 37.2942 56.4887 37.2382C56.5056 37.1823 56.5163 37.1095 56.5212 37.0208C56.5271 36.951 56.533 36.8499 56.5396 36.7175C56.547 36.5843 56.5505 36.493 56.5512 36.4442V34.3436C56.5531 33.826 56.5003 33.4425 56.3888 33.1988C56.2191 32.8153 55.9134 32.6231 55.4797 32.6214C54.9958 32.6199 54.6103 32.8619 54.3245 33.3405C54.2168 33.5214 54.1331 33.7273 54.0725 33.9569C54.0128 34.1866 53.9815 34.4134 53.981 34.6355V36.4434C53.9773 36.7658 53.99 37.0062 54.0194 37.1625C54.05 37.3232 54.122 37.4358 54.2419 37.4871C54.3467 37.533 54.5022 37.5562 54.7054 37.5599V37.7069H52.5682C52.3789 37.7138 52.0174 37.7238 51.8387 37.7214C51.6508 37.7184 51.5604 37.6977 51.3895 37.684C51.2377 37.6371 51.1738 37.5958 51.1236 37.491ZM48.6035 36.3399C48.6071 36.6808 48.6858 36.9571 48.843 37.1655C49.0006 37.3753 49.2135 37.4832 49.4766 37.4879C49.7423 37.4842 49.994 37.4112 50.2283 37.2705C50.4627 37.1288 50.6478 36.9395 50.7814 36.7053C50.863 36.5558 50.9225 36.3638 50.9596 36.1301C50.9968 35.8988 51.0151 35.6103 51.0151 35.2649V34.7288C50.5389 34.7725 50.1984 34.8199 49.9513 34.8751C49.702 34.9303 49.4821 35.0092 49.2901 35.1132C48.8355 35.3506 48.6071 35.7627 48.6035 36.3399Z" fill="black"/>
<path fill-rule="evenodd" clip-rule="evenodd" d="M6.79276 34.5542V36.4159C6.78906 36.7144 6.80543 36.9365 6.84153 37.0813C6.87816 37.2259 6.9567 37.3216 7.07837 37.3683C7.19952 37.415 7.38635 37.442 7.63763 37.4465V37.7068H4.85718V37.4465C5.09384 37.442 5.26905 37.415 5.38333 37.3683C5.49691 37.3216 5.57034 37.2259 5.60397 37.0813C5.63726 36.9365 5.65258 36.7144 5.64905 36.4159V31.5211C5.65222 31.2224 5.63761 31.0003 5.60538 30.8555C5.57298 30.71 5.50202 30.6137 5.39355 30.5653C5.28472 30.517 5.11761 30.4889 4.89222 30.4803V30.22H7.54061C8.43338 30.2161 9.08756 30.3816 9.50278 30.7168C9.91817 31.0524 10.1235 31.58 10.1186 32.3022C10.1217 33.3161 9.74613 33.9798 8.99229 34.2939C8.79578 34.3742 8.54503 34.4378 8.24057 34.4837C7.9354 34.5296 7.59661 34.5535 7.22382 34.5542H6.79276ZM6.79276 34.2641H7.25059C7.80052 34.2616 8.205 34.1255 8.46473 33.8535C8.60578 33.6965 8.71266 33.4898 8.78592 33.2348C8.85847 32.9805 8.89544 32.6896 8.8958 32.3618C8.89298 31.1291 8.37933 30.5118 7.35624 30.5102H6.79276V34.2641Z" fill="black"/>
<path fill-rule="evenodd" clip-rule="evenodd" d="M14.595 34.8682H11.3602C11.3634 35.2312 11.3836 35.5358 11.4206 35.7817C11.4574 36.0269 11.5167 36.2512 11.5981 36.4547C11.8668 37.1134 12.2819 37.4427 12.8436 37.4427C13.1616 37.4404 13.4499 37.3423 13.7089 37.1471C13.9674 36.9519 14.1827 36.6708 14.3541 36.3056L14.5832 36.4649C14.358 36.9366 14.0827 37.2827 13.7578 37.504C13.433 37.7245 13.0368 37.8342 12.5685 37.8317C11.8323 37.8217 11.1549 37.5743 10.7309 37.0897C10.3065 36.6049 10.0902 35.9403 10.0818 35.0979C10.0902 34.2486 10.2994 33.5771 10.7092 33.0823C11.1186 32.5879 11.7724 32.3351 12.4771 32.3243C12.9457 32.3253 13.3983 32.4377 13.7195 32.6614C14.0406 32.8842 14.2775 33.2112 14.4301 33.6416C14.48 33.784 14.518 33.9469 14.5435 34.1317C14.5693 34.3155 14.5865 34.5612 14.595 34.8682ZM11.3692 34.5795H13.3928C13.3845 34.2716 13.369 34.0236 13.3458 33.836C13.3231 33.6475 13.2864 33.4799 13.2373 33.3321C13.0662 32.8084 12.8038 32.5488 12.4498 32.5532C12.0528 32.5573 11.7568 32.8497 11.5615 33.4316C11.5115 33.5825 11.4717 33.7479 11.441 33.9271C11.4107 34.1064 11.3866 34.3238 11.3692 34.5795Z" fill="black"/>
<path fill-rule="evenodd" clip-rule="evenodd" d="M14.8017 32.4668L16.5961 32.3366C16.6057 32.5251 16.6128 32.6827 16.6177 32.8107C16.6227 32.9394 16.6249 33.0518 16.6249 33.1499V33.4508C17.0148 32.7012 17.4857 32.3229 18.0375 32.3168C18.276 32.3214 18.4698 32.3947 18.6185 32.5357C18.7674 32.6773 18.8442 32.8588 18.8486 33.0796C18.8453 33.2633 18.7808 33.4103 18.6554 33.5212C18.5302 33.6314 18.3654 33.689 18.1617 33.6912C17.9166 33.6996 17.7671 33.5933 17.713 33.3705C17.6776 33.2325 17.6412 33.1392 17.6031 33.0894C17.5654 33.0396 17.51 33.0166 17.436 33.019H17.4172C17.2293 33.0357 17.0513 33.1927 16.8824 33.4914C16.8063 33.6399 16.7491 33.8038 16.7109 33.9836C16.6727 34.1636 16.6536 34.3712 16.6536 34.6057V36.4625C16.6498 36.759 16.6637 36.9771 16.6947 37.1181C16.7255 37.2581 16.7959 37.3499 16.9051 37.3938C17.0148 37.4366 17.1851 37.461 17.4172 37.4664V37.707H14.7637V37.4664C14.9799 37.4671 15.1403 37.4451 15.2442 37.3999C15.3488 37.3547 15.4161 37.2605 15.4471 37.1181C15.4784 36.974 15.4922 36.7559 15.4893 36.4625V33.6814C15.4978 33.2677 15.4587 32.999 15.371 32.8749C15.2833 32.7508 15.0937 32.6949 14.8017 32.7081V32.4668Z" fill="black"/>
<path fill-rule="evenodd" clip-rule="evenodd" d="M20.9806 32.3366L20.9902 33.3305C21.3768 32.6614 21.9304 32.3236 22.6511 32.3168C23.384 32.3121 23.836 32.6629 24.0063 33.3712C24.2134 33.0058 24.4504 32.7386 24.7161 32.5694C24.9818 32.3986 25.2925 32.3144 25.6478 32.3168C26.2095 32.3197 26.6232 32.5144 26.8889 32.8986C26.9924 33.0449 27.0668 33.2225 27.1106 33.4332C27.155 33.6444 27.1765 33.9179 27.1752 34.2542V36.4625C27.1719 36.7558 27.186 36.974 27.217 37.1171C27.2479 37.2605 27.3157 37.3547 27.4196 37.3999C27.5242 37.4451 27.6845 37.4671 27.9007 37.4657V37.7069H25.3138V37.4657C25.5207 37.4671 25.6742 37.4451 25.7744 37.3999C25.8748 37.3547 25.9401 37.2605 25.9697 37.1171C26.0004 36.974 26.0137 36.7558 26.0109 36.4625V34.264C26.0132 33.7366 25.9512 33.3558 25.826 33.1223C25.7005 32.8881 25.498 32.7738 25.2183 32.7784C24.8827 32.7716 24.5994 32.9555 24.3691 33.3305C24.1704 33.6431 24.0715 33.9816 24.0729 34.3445V36.4625C24.0701 36.7558 24.0836 36.974 24.1139 37.1171C24.1445 37.2605 24.2106 37.3547 24.312 37.3999C24.4138 37.4451 24.5693 37.4671 24.7795 37.4657V37.7069H22.2213V37.4657C22.428 37.4671 22.5817 37.4451 22.6821 37.3999C22.7823 37.3547 22.8475 37.2605 22.8772 37.1171C22.9075 36.974 22.9214 36.7558 22.9179 36.4625V34.2542C22.9228 33.2601 22.6652 32.7684 22.1449 32.7784C21.8212 32.7907 21.5497 32.9523 21.3313 33.2625C21.1125 33.5734 20.9987 33.9608 20.9902 34.4247V36.4625C20.9873 36.759 21.0006 36.9794 21.0309 37.1219C21.061 37.2649 21.126 37.3584 21.2262 37.4021C21.3266 37.4458 21.48 37.4671 21.687 37.4657V37.7069H19.1001V37.4657C19.3167 37.4671 19.4764 37.4458 19.581 37.4021C19.6851 37.3584 19.7529 37.2649 19.7839 37.1219C19.815 36.9794 19.8289 36.759 19.8254 36.4625V33.6721C19.8356 33.2632 19.7965 32.999 19.7085 32.8781C19.6208 32.7564 19.4245 32.7005 19.1195 32.7081V32.4668L20.9806 32.3366Z" fill="black"/>
<path fill-rule="evenodd" clip-rule="evenodd" d="M34.6871 32.7961V36.1487C34.6868 36.3668 34.6945 36.5476 34.7098 36.6907C34.7252 36.8339 34.7495 36.9541 34.7826 37.052C34.8227 37.1641 34.8854 37.2535 34.9696 37.3211C35.0543 37.3876 35.1479 37.422 35.2499 37.4235C35.454 37.4205 35.6766 37.3163 35.9185 37.1128L36.052 37.3629C35.6686 37.7015 35.233 37.8685 34.7445 37.8653C34.2177 37.857 33.8584 37.6724 33.6656 37.3133C33.6279 37.2337 33.5985 37.1433 33.5776 37.0407C33.5571 36.9389 33.5424 36.8018 33.5343 36.6279C33.5262 36.4548 33.5221 36.2213 33.5225 35.9279V32.7961H32.9785V32.4952C33.1867 32.4866 33.3626 32.4407 33.5071 32.3572C33.6519 32.2731 33.7778 32.1422 33.8856 31.9629C33.9699 31.8266 34.0396 31.675 34.094 31.5089C34.1488 31.3426 34.1969 31.1359 34.2386 30.8885L34.716 30.8389C34.7097 30.9713 34.7038 31.1061 34.6998 31.2431C34.6957 31.3794 34.6924 31.5441 34.6905 31.7361C34.6882 31.9283 34.6871 32.175 34.6871 32.4744H35.8423V32.7961H34.6871Z" fill="black"/>
<path fill-rule="evenodd" clip-rule="evenodd" d="M32.9736 37.4948V37.7068C32.6945 37.7261 32.5816 37.7261 32.288 37.7261C32.0551 37.7261 31.8138 37.722 31.6136 37.6433C31.4898 37.5942 31.4208 37.5522 31.3284 37.4503C31.2639 37.3424 31.2229 37.3361 31.2023 37.0368C30.9557 37.317 30.6994 37.5222 30.4329 37.6548C30.1658 37.7864 29.8784 37.8516 29.5703 37.8501C29.1121 37.8448 28.7537 37.7122 28.4949 37.4511C28.2362 37.19 28.105 36.8309 28.1001 36.3744C28.0985 35.5129 28.6076 34.9775 29.6272 34.7685C30.0871 34.6744 30.6087 34.6109 31.1928 34.5772V33.9248C31.1975 33.4024 31.1449 33.0403 31.0353 32.8388C30.9253 32.6374 30.7296 32.5411 30.4483 32.5503C30.1491 32.5433 29.936 32.6574 29.8087 32.8911C29.7626 32.9722 29.7286 33.064 29.7073 33.169C29.6861 33.2731 29.6689 33.4177 29.656 33.6038C29.6485 33.7831 29.5992 33.9101 29.5079 33.9853C29.4169 34.0611 29.2722 34.0977 29.0737 34.0963C28.6314 34.0925 28.4088 33.9385 28.4056 33.6344C28.407 33.4568 28.4593 33.2868 28.5622 33.1261C28.6646 32.9644 28.8099 32.8227 28.9976 32.7003C29.3949 32.4431 29.9168 32.3159 30.5631 32.319C31.2199 32.3159 31.6907 32.4529 31.9755 32.7309C32.1039 32.8581 32.1981 33.0203 32.2583 33.2172C32.3187 33.4148 32.3483 33.6675 32.3476 33.9761L32.3379 34.849L32.3285 35.722C32.3208 36.0085 32.3173 36.189 32.319 36.264C32.3155 36.6264 32.3264 36.8905 32.3514 37.0568C32.3766 37.2237 32.4041 37.2972 32.508 37.3875C32.6902 37.4972 32.8466 37.494 32.9736 37.4948ZM31.1928 35.5818V34.8092C30.5094 34.8575 30.0246 34.9905 29.7383 35.2074C29.4525 35.4248 29.3134 35.7633 29.322 36.2237C29.3248 36.585 29.3952 36.8714 29.5333 37.0835C29.6708 37.2957 29.8584 37.4037 30.095 37.4081C30.2892 37.4066 30.4685 37.3477 30.6332 37.2313C30.7976 37.1157 30.9267 36.9533 31.0209 36.7459C31.0822 36.6188 31.1262 36.464 31.1537 36.2801C31.1803 36.0964 31.1935 35.8637 31.1928 35.5818Z" fill="black"/>
<path fill-rule="evenodd" clip-rule="evenodd" d="M41.1918 37.4948V37.7068C40.9125 37.7261 40.7998 37.7268 40.5062 37.7268C40.2731 37.7268 40.0324 37.7229 39.8316 37.644C39.7078 37.5951 39.639 37.5537 39.5467 37.4503C39.4821 37.3431 39.4409 37.3368 39.4205 37.0375C39.1739 37.317 38.9176 37.5229 38.651 37.6555C38.384 37.7864 38.0964 37.8524 37.7883 37.8509C37.3301 37.8453 36.9719 37.7122 36.7131 37.4518C36.4544 37.1907 36.3232 36.8316 36.3181 36.3751C36.3167 35.5137 36.8258 34.9785 37.8453 34.7694C38.3053 34.6751 38.8269 34.6116 39.4108 34.5779V33.9255C39.4155 33.4033 39.3629 33.0411 39.2534 32.8388C39.1435 32.6374 38.9477 32.5418 38.6663 32.5511C38.3673 32.5442 38.154 32.6583 38.0267 32.8916C37.9806 32.9729 37.9466 33.0648 37.9255 33.1698C37.9043 33.2738 37.8871 33.4185 37.8744 33.6046C37.8667 33.7831 37.8173 33.9101 37.726 33.9861C37.6351 34.0618 37.4903 34.0985 37.2917 34.097C36.8496 34.0933 36.627 33.9394 36.6236 33.6353C36.625 33.4575 36.6773 33.2875 36.7802 33.1268C36.8827 32.9653 37.0281 32.8235 37.2156 32.7018C37.6131 32.4438 38.135 32.3166 38.7811 32.3198C39.4379 32.3166 39.9089 32.4536 40.1937 32.7316C40.322 32.8588 40.4163 33.0212 40.4763 33.2179C40.5365 33.4155 40.5665 33.6683 40.5656 33.9761L40.5561 34.8498L40.5467 35.7227C40.539 36.009 40.5355 36.1898 40.5371 36.2648C40.5337 36.627 40.5446 36.8912 40.5695 37.0575C40.5948 37.2244 40.6221 37.2981 40.7262 37.3883C40.9082 37.4979 41.0648 37.494 41.1918 37.4948ZM39.4108 35.5827V34.8092C38.7274 34.8583 38.2428 34.9914 37.9565 35.2081C37.67 35.4257 37.5314 35.764 37.54 36.2244C37.543 36.5859 37.6134 36.8722 37.7513 37.0842C37.889 37.2964 38.0766 37.4044 38.313 37.4088C38.5074 37.4074 38.6867 37.3485 38.8513 37.232C39.0156 37.1164 39.1449 36.954 39.2387 36.7466C39.3004 36.6194 39.3444 36.4648 39.3715 36.2809C39.3985 36.0972 39.4117 35.8644 39.4108 35.5827Z" fill="black"/>
</g>
</g>
</g>
<defs>
<filter id="filter0_d" x="-4" y="0" width="76" height="56.6111" filterUnits="userSpaceOnUse" color-interpolation-filters="sRGB">
<feFlood flood-opacity="0" result="BackgroundImageFix"/>
<feColorMatrix in="SourceAlpha" type="matrix" values="0 0 0 0 0 0 0 0 0 0 0 0 0 0 0 0 0 0 127 0"/>
<feOffset dy="4"/>
<feGaussianBlur stdDeviation="2"/>
<feColorMatrix type="matrix" values="0 0 0 0 0 0 0 0 0 0 0 0 0 0 0 0 0 0 0.25 0"/>
<feBlend mode="normal" in2="BackgroundImageFix" result="effect1_dropShadow"/>
<feBlend mode="normal" in="SourceGraphic" in2="effect1_dropShadow" result="shape"/>
</filter>
<clipPath id="clip0">
<rect width="68" height="49" fill="white"/>
</clipPath>
</defs>
</svg>
