<svg width="35" height="35" viewBox="0 0 35 35" fill="none" xmlns="http://www.w3.org/2000/svg">
<g clip-path="url(#clip0)">
<path d="M16.3877 31.4127C15.257 31.4114 14.2674 30.6537 13.9713 29.5624C13.9613 29.5245 13.9613 29.487 13.9533 29.4489L7.06888 25.7288C6.88241 25.622 6.67123 25.5658 6.45639 25.5664C6.37613 25.5664 6.29587 25.5737 6.21683 25.5887C6.10849 25.6076 6.0032 25.6418 5.90433 25.69C5.67941 25.7968 5.49203 25.9695 5.36752 26.1856C5.25857 26.376 5.2009 26.5912 5.19998 26.8106C5.19693 27.2577 5.43405 27.6721 5.82132 27.8955L17.2157 34.7137C17.5141 34.9005 17.8593 34.9997 18.2115 35H27.0176C27.2529 34.9997 27.4861 34.9551 27.7052 34.8688L30.0001 33.9624V27.2293L27.7656 25.8914C27.4748 25.7172 27.1418 25.625 26.8025 25.625H24.4068C24.0254 25.625 23.6454 25.6751 23.2771 25.7736L16.0627 27.7039C15.5564 27.8442 15.1899 28.2831 15.142 28.8062V29.0106C15.1463 29.0887 15.1582 29.1663 15.1783 29.2419C15.3269 29.7867 15.8228 30.1642 16.3877 30.1627C16.4637 30.1563 16.8314 30.0812 17.1165 30.0156L23.589 28.2837L23.9112 29.4913L17.4177 31.2286C17.0802 31.3193 16.7356 31.3809 16.3877 31.4127Z" fill="url(#paint0_linear)"/>
<path d="M31.25 25H35V35H31.25V25Z" fill="url(#paint1_linear)"/>
<path d="M0 0H3.75V11.25H0V0Z" fill="url(#paint2_linear)"/>
<path d="M7.13257 9.83492C7.98553 10.4013 8.97705 10.7245 10 10.77V7.74996C9.53827 7.5815 9.10675 7.33919 8.72253 7.03249L8.35632 6.73555L9.14368 5.76448L9.50623 6.05806C10.7446 7.04805 12.5104 7.02181 13.7189 5.99581L14.1562 5.62075L17.8436 9.30818C18.3344 9.79647 19.1278 9.79494 19.6164 9.30452C20.1047 8.8138 20.1031 8.02034 19.6124 7.53206L15.202 3.11678L16.0855 2.23329L17.6025 3.75002H22.76L20.2911 1.28115C19.4727 0.458087 18.3585 -0.00333875 17.1976 1.81892e-05H9.3399C9.04907 1.81892e-05 8.76221 0.0680724 8.50189 0.198077L7.10052 0.898761C6.63208 1.13222 6.11267 1.24483 5.58929 1.22621L5 1.20516V9.37502H6.43738L7.13257 9.83492Z" fill="url(#paint3_linear)"/>
<path d="M11.25 8.01178V18.75H35V5H18.8525L20.1025 6.25H30.625V6.875C30.625 8.25562 31.7444 9.375 33.125 9.375H33.75V14.375H33.125C31.7444 14.375 30.625 15.4944 30.625 16.875V17.5H15.625V16.875C15.625 15.4944 14.5056 14.375 13.125 14.375H12.5V9.375H13.125C13.9172 9.37439 14.6622 8.9975 15.1318 8.35938L14.0656 7.29309C13.2309 7.83417 12.2418 8.08685 11.25 8.01178Z" fill="url(#paint4_linear)"/>
<path d="M18.7326 10.9183C18.071 10.9198 17.4359 10.6595 16.9662 10.1938L16.0233 9.24988C15.451 9.95239 14.6432 10.4227 13.75 10.5731V13.1769C15.3226 13.4457 16.5543 14.6774 16.8231 16.25H29.4269C29.6957 14.6774 30.9274 13.4457 32.5 13.1769V10.5731C30.9274 10.3043 29.6957 9.07257 29.4269 7.5H21.0574C21.3562 8.237 21.2799 9.07318 20.8527 9.74365C21.9989 8.52966 23.8974 8.4314 25.163 9.52087C26.4288 10.6104 26.6144 12.5021 25.5844 13.8165C24.5547 15.1312 22.6733 15.4037 21.3126 14.4354C19.9521 13.4674 19.5932 11.6006 20.4974 10.1968C20.0266 10.6595 19.3927 10.9186 18.7326 10.9183Z" fill="url(#paint5_linear)"/>
<path d="M25 11.875C25 12.9105 24.1605 13.75 23.125 13.75C22.0895 13.75 21.25 12.9105 21.25 11.875C21.25 10.8395 22.0895 10 23.125 10C24.1605 10 25 10.8395 25 11.875Z" fill="url(#paint6_linear)"/>
</g>
<defs>
<linearGradient id="paint0_linear" x1="17.6" y1="25.5664" x2="17.6" y2="35" gradientUnits="userSpaceOnUse">
<stop stop-color="#F57C2A"/>
<stop offset="0.625" stop-color="#88238A"/>
</linearGradient>
<linearGradient id="paint1_linear" x1="33.125" y1="25" x2="33.125" y2="35" gradientUnits="userSpaceOnUse">
<stop stop-color="#F57C2A"/>
<stop offset="0.625" stop-color="#88238A"/>
</linearGradient>
<linearGradient id="paint2_linear" x1="1.875" y1="0" x2="1.875" y2="11.25" gradientUnits="userSpaceOnUse">
<stop stop-color="#F57C2A"/>
<stop offset="0.625" stop-color="#88238A"/>
</linearGradient>
<linearGradient id="paint3_linear" x1="13.88" y1="0" x2="13.88" y2="10.77" gradientUnits="userSpaceOnUse">
<stop stop-color="#F57C2A"/>
<stop offset="0.625" stop-color="#88238A"/>
</linearGradient>
<linearGradient id="paint4_linear" x1="23.125" y1="5" x2="23.125" y2="18.75" gradientUnits="userSpaceOnUse">
<stop stop-color="#F57C2A"/>
<stop offset="0.625" stop-color="#88238A"/>
</linearGradient>
<linearGradient id="paint5_linear" x1="23.125" y1="7.5" x2="23.125" y2="16.25" gradientUnits="userSpaceOnUse">
<stop stop-color="#F57C2A"/>
<stop offset="0.625" stop-color="#88238A"/>
</linearGradient>
<linearGradient id="paint6_linear" x1="23.125" y1="10" x2="23.125" y2="13.75" gradientUnits="userSpaceOnUse">
<stop stop-color="#F57C2A"/>
<stop offset="0.625" stop-color="#88238A"/>
</linearGradient>
<clipPath id="clip0">
<rect width="35" height="35" fill="white"/>
</clipPath>
</defs>
</svg>
