<svg width="40" height="39" viewBox="0 0 40 39" fill="none" xmlns="http://www.w3.org/2000/svg">
<ellipse cx="20" cy="19.5" rx="20" ry="19.5" fill="url(#paint0_linear)"/>
<path d="M19.5001 9.91666C14.2101 9.91666 9.91675 14.21 9.91675 19.5C9.91675 24.79 14.2101 29.0833 19.5001 29.0833C24.7901 29.0833 29.0834 24.79 29.0834 19.5C29.0834 14.21 24.7901 9.91666 19.5001 9.91666ZM20.8513 25.3362V27.1667H18.2926V25.3171C16.6538 24.9721 15.2642 23.9179 15.1588 22.0587H17.0372C17.133 23.065 17.823 23.8508 19.5767 23.8508C21.4551 23.8508 21.8767 22.9117 21.8767 22.3271C21.8767 21.5317 21.4551 20.7842 19.318 20.2762C16.9413 19.7012 15.3122 18.7237 15.3122 16.7592C15.3122 15.1108 16.6442 14.0375 18.2926 13.6829V11.8333H20.8513V13.7021C22.6338 14.1333 23.5251 15.4846 23.5826 16.9508H21.7042C21.6563 15.8871 21.0909 15.1587 19.5767 15.1587C18.1392 15.1587 17.2767 15.8104 17.2767 16.7304C17.2767 17.5354 17.8997 18.0625 19.8355 18.5608C21.7713 19.0592 23.8413 19.8929 23.8413 22.3079C23.8317 24.0617 22.5188 25.02 20.8513 25.3362Z" fill="white"/>
<defs>
<linearGradient id="paint0_linear" x1="-13.7705" y1="30.6885" x2="70.8186" y2="29.3434" gradientUnits="userSpaceOnUse">
<stop stop-color="#FF00CC"/>
<stop offset="1" stop-color="#333399"/>
</linearGradient>
</defs>
</svg>
