<svg width="26" height="18" viewBox="0 0 26 18" fill="none" xmlns="http://www.w3.org/2000/svg">
<path d="M8.27273 7.71429C6.31091 7.71429 4.73909 5.99143 4.73909 3.85714C4.73909 1.72286 6.31091 0 8.27273 0C10.2345 0 11.8182 1.72286 11.8182 3.85714C11.8182 5.99143 10.2345 7.71429 8.27273 7.71429ZM17.7273 7.71429C15.7655 7.71429 14.1936 5.99143 14.1936 3.85714C14.1936 1.72286 15.7655 0 17.7273 0C19.6891 0 21.2727 1.72286 21.2727 3.85714C21.2727 5.99143 19.6891 7.71429 17.7273 7.71429ZM17.7273 10.2857C20.4809 10.2857 26 11.79 26 14.7857V18H9.45455V14.7857C9.45455 11.79 14.9736 10.2857 17.7273 10.2857ZM8.27273 10.2857C8.61546 10.2857 9.00546 10.3114 9.41909 10.35C8.04818 11.43 7.09091 12.8829 7.09091 14.7857V18H1.90735e-06V14.7857C1.90735e-06 11.79 5.51909 10.2857 8.27273 10.2857Z" fill="#FF5200" fill-opacity="0.87"/>
</svg>
