<svg width="31" height="35" viewBox="0 0 31 35" fill="none" xmlns="http://www.w3.org/2000/svg">
<path d="M21.3343 4.30208C17.1124 4.30208 13.6781 7.73646 13.6781 11.9583C13.6781 16.1802 17.1124 19.6146 21.3343 19.6146C25.5562 19.6146 28.9906 16.1802 28.9906 11.9583C28.9906 7.73646 25.5562 4.30208 21.3343 4.30208ZM21.1603 11.2928L21.8562 11.5103C22.5908 11.7398 23.0843 12.4111 23.0843 13.1806V13.4167C23.0843 14.2566 22.4894 14.96 21.6989 15.1282V15.3125C21.6989 15.6346 21.4377 15.8958 21.1156 15.8958C20.7934 15.8958 20.5322 15.6346 20.5322 15.3125V14.9712C19.9697 14.6799 19.5843 14.0926 19.5843 13.4167C19.5843 13.0945 19.8455 12.8333 20.1676 12.8333C20.4898 12.8333 20.751 13.0945 20.751 13.4167C20.751 13.7383 21.0127 14 21.3343 14C21.6559 14 21.9176 13.7383 21.9176 13.4167V13.1806C21.9176 12.9241 21.7531 12.7004 21.5083 12.6238L20.8124 12.4064C20.0778 12.1769 19.5843 11.5056 19.5843 10.7361V10.5C19.5843 9.73955 20.072 9.09118 20.751 8.85033V8.60417C20.751 8.28202 21.0122 8.02083 21.3343 8.02083C21.6565 8.02083 21.9176 8.28202 21.9176 8.60417V8.85033C22.5966 9.09118 23.0843 9.73955 23.0843 10.5C23.0843 10.8221 22.8231 11.0833 22.501 11.0833C22.1788 11.0833 21.9176 10.8221 21.9176 10.5C21.9176 10.1784 21.6559 9.91666 21.3343 9.91666C21.0127 9.91666 20.751 10.1784 20.751 10.5V10.736C20.751 10.9925 20.9155 11.2163 21.1603 11.2928ZM26.7102 33.8333C25.1108 33.8225 23.8135 32.5186 23.8135 30.9167V21.1725C23.8135 20.8036 23.475 20.5262 23.1138 20.6014C17.6983 21.7305 12.5114 17.5687 12.5114 11.9583C12.5114 6.34951 17.6966 2.18568 23.1138 3.31516C23.475 3.39048 23.8135 3.11296 23.8135 2.74407V2.33333C23.8135 1.04468 22.7688 0 21.4801 0H2.52181C1.23315 0 0.188477 1.04468 0.188477 2.33333V30.9167C0.188477 33.1718 2.01664 35 4.27181 35H26.7301C27.0679 35 27.3383 34.7133 27.3117 34.3699C27.2878 34.063 27.018 33.8354 26.7102 33.8333ZM5.87598 8.53125H10.8343C11.1565 8.53125 11.4176 8.79244 11.4176 9.11458C11.4176 9.43673 11.1565 9.69791 10.8343 9.69791H5.87598C5.55383 9.69791 5.29264 9.43673 5.29264 9.11458C5.29264 8.79244 5.55383 8.53125 5.87598 8.53125ZM5.87598 15.0937H10.8343C11.1565 15.0937 11.4176 15.3549 11.4176 15.6771C11.4176 15.9992 11.1565 16.2604 10.8343 16.2604H5.87598C5.55383 16.2604 5.29264 15.9992 5.29264 15.6771C5.29264 15.3549 5.55383 15.0937 5.87598 15.0937ZM18.126 28.9479H5.87598C5.55383 28.9479 5.29264 28.6867 5.29264 28.3646C5.29264 28.0424 5.55383 27.7812 5.87598 27.7812H18.126C18.4481 27.7812 18.7093 28.0424 18.7093 28.3646C18.7093 28.6867 18.4481 28.9479 18.126 28.9479ZM18.126 22.8229H5.87598C5.55383 22.8229 5.29264 22.5617 5.29264 22.2396C5.29264 21.9174 5.55383 21.6562 5.87598 21.6562H18.126C18.4481 21.6562 18.7093 21.9174 18.7093 22.2396C18.7093 22.5617 18.4481 22.8229 18.126 22.8229ZM30.8113 30.0402C30.8135 31.6524 29.5068 32.9591 27.8968 32.9591C26.2879 32.9591 24.9823 31.6553 24.9823 30.0446C24.9823 24.6565 24.9785 22.5573 24.982 21.7261C24.9834 21.4049 25.2441 21.1458 25.5653 21.1458H28.4801C29.6906 21.1458 30.6859 22.0675 30.8018 23.2473L30.8113 30.0402Z" fill="url(#paint0_linear)"/>
<defs>
<linearGradient id="paint0_linear" x1="15.4999" y1="0" x2="15.4999" y2="35" gradientUnits="userSpaceOnUse">
<stop stop-color="#36D1DC"/>
<stop offset="1" stop-color="#5B86E5"/>
</linearGradient>
</defs>
</svg>
