<svg width="40" height="43" viewBox="0 0 40 43" fill="none" xmlns="http://www.w3.org/2000/svg">
<path d="M21.6666 12.381H18.3333V19.4558H11.6666V22.9932H18.3333V30.068H21.6666V22.9932H28.3333V19.4558H21.6666V12.381ZM19.9999 3.53741C10.8166 3.53741 3.33325 11.4789 3.33325 21.2245C3.33325 30.9701 10.8166 38.9116 19.9999 38.9116C29.1833 38.9116 36.6666 30.9701 36.6666 21.2245C36.6666 11.4789 29.1833 3.53741 19.9999 3.53741ZM19.9999 35.3742C12.6499 35.3742 6.66659 29.0245 6.66659 21.2245C6.66659 13.4245 12.6499 7.07483 19.9999 7.07483C27.3499 7.07483 33.3333 13.4245 33.3333 21.2245C33.3333 29.0245 27.3499 35.3742 19.9999 35.3742Z" fill="url(#paint0_linear)" fill-opacity="0.87"/>
<defs>
<linearGradient id="paint0_linear" x1="-26.6668" y1="36.7891" x2="163.337" y2="39.302" gradientUnits="userSpaceOnUse">
<stop stop-color="#F7FF00"/>
<stop offset="0.25" stop-color="#70C34E"/>
</linearGradient>
</defs>
</svg>
