<svg width="478" height="388" viewBox="0 0 478 388" fill="none" xmlns="http://www.w3.org/2000/svg">
<g clip-path="url(#clip0)">
<path d="M322.045 356.322C299.797 356.381 277.57 354.924 255.52 351.96C254.8 351.868 254.07 351.765 253.345 351.657C247.933 350.887 242.518 350.006 237.253 349.04C213.563 344.704 191.222 338.372 170.852 330.217C103.065 303.082 60.445 308.857 36.6281 318.48C10.853 328.894 0.944927 345.932 0.847811 346.103L0 345.622C0.0982978 345.448 10.1342 328.156 36.1909 317.605C51.4683 311.418 69.1916 308.714 88.8723 309.566C113.439 310.631 141.143 317.274 171.214 329.311C191.524 337.441 213.802 343.756 237.429 348.08C242.681 349.044 248.083 349.923 253.486 350.691C254.208 350.799 254.931 350.901 255.649 350.993C315.42 359.221 373.082 354.259 410.93 348.648C442.127 344.023 462.203 338.616 462.403 338.562L462.658 339.503C462.459 339.558 442.332 344.979 411.073 349.613C381.599 354.006 351.844 356.248 322.045 356.322Z" fill="#E6E6E6"/>
<path d="M322.111 76.3304C304.927 76.3307 288.197 75.5258 272.055 73.9171C234.964 70.2204 200.915 62.2443 170.852 50.2103C103.065 23.075 60.445 28.8497 36.6281 38.4729C10.853 48.8867 0.944927 65.9253 0.847811 66.0961L0 65.6144C0.0982978 65.441 10.1342 48.1493 36.1909 37.5976C51.4686 31.4108 69.1916 28.7059 88.8723 29.5591C113.439 30.6236 141.143 37.2667 171.214 49.3042C239.107 76.4819 314.656 77.55 366.078 73.6634C421.814 69.4488 462.004 58.6635 462.403 58.5551L462.658 59.4965C462.258 59.6053 421.997 70.4116 366.173 74.6345C351.226 75.7652 336.509 76.3304 322.111 76.3304Z" fill="#E6E6E6"/>
<path d="M319.587 4.71697C319.587 4.71697 300.422 -2.13275 288.102 25.2661C275.782 52.665 256.617 82.8037 256.617 82.8037L267.568 85.5436C267.568 85.5436 270.306 66.3644 277.151 63.6245L274.413 88.2835C274.413 88.2835 356.548 117.052 393.509 85.5436L392.14 75.954C392.14 75.954 397.616 77.324 397.616 85.5436L401.723 81.4338C401.723 81.4338 397.616 73.2141 385.296 62.2546C377.209 55.0612 374.43 41.3759 373.475 32.8196C372.76 25.6751 369.903 18.9136 365.281 13.4222C357.093 3.92629 342.174 -6.16647 319.587 4.71697Z" fill="#2F2E41"/>
<path d="M435.905 159.757C435.905 159.757 471.969 190.54 477.273 208.586C482.577 226.631 457.119 228.754 457.119 228.754L401.962 234.062C401.962 234.062 400.901 259.538 391.355 262.723C381.808 265.907 389.417 220.594 389.417 220.594L443.33 205.401L418.934 179.925L435.905 159.757Z" fill="#FBBEBE"/>
<path d="M267.251 191.602L263.008 247.862L239.672 343.397C239.672 343.397 218.458 386.919 236.49 387.98C254.522 389.042 253.462 346.582 253.462 346.582L287.405 256.354L290.587 194.786L267.251 191.602Z" fill="#FBBEBE"/>
<path d="M326.651 92.8818C345.983 92.8818 361.655 77.1985 361.655 57.8521C361.655 38.5057 345.983 22.8224 326.651 22.8224C307.319 22.8224 291.647 38.5057 291.647 57.8521C291.647 77.1985 307.319 92.8818 326.651 92.8818Z" fill="#FBBEBE"/>
<path d="M310.74 74.8362C310.74 74.8362 323.469 120.481 303.315 132.158C283.162 143.834 354.23 152.326 373.323 117.296C373.323 117.296 339.38 105.62 348.926 74.8362H310.74Z" fill="#FBBEBE"/>
<path d="M286.344 137.465L279.98 135.342C279.98 135.342 267.251 140.65 267.251 150.203C267.251 159.757 265.13 197.971 265.13 197.971L293.769 201.155L286.344 137.465Z" fill="#323EDD"/>
<path d="M411.002 349.13C371.845 354.935 314.774 359.623 255.587 351.477C255.582 350.891 255.582 350.321 255.582 349.765C255.582 346.452 255.709 343.177 255.962 339.94C258.994 300.076 279.516 266.841 287.457 255.323C287.856 254.738 288.227 254.211 288.558 253.743C289.84 251.943 290.586 250.991 290.586 250.991C290.586 250.991 352.108 249.987 383.929 262.723C385.463 263.368 386.867 264.287 388.072 265.436C399.937 276.392 406.907 311.964 411.002 349.13Z" fill="#323EDD"/>
<path d="M388.173 122.604C388.173 122.604 401.962 115.173 415.752 131.096L443.33 162.941L422.116 186.294L381.809 161.88L388.173 122.604Z" fill="#323EDD"/>
<path d="M288.827 58.0741C301.218 49.0995 311.249 38.7626 317.884 26.4663C317.884 26.4663 340.625 51.7526 354.522 53.0169C368.419 54.2812 355.786 22.6734 355.786 22.6734L330.518 16.3518L306.514 18.8804L287.563 31.5236L288.827 58.0741Z" fill="#2F2E41"/>
<path d="M368.019 115.173C368.019 115.173 353.175 138.661 308.622 127.448L283.34 134.416L279.979 135.342C279.979 135.342 283.162 199.032 291.647 210.709C300.133 222.385 298.012 228.754 295.89 229.816C293.769 230.877 288.465 228.754 291.647 234.062C294.83 239.37 299.072 236.185 294.83 239.37C290.587 242.554 288.465 254.231 288.465 254.231L388.173 266.969C388.173 266.969 384.99 225.57 393.476 204.34C401.962 183.11 404.083 174.618 404.083 174.618L397.719 121.542L368.019 115.173Z" fill="#323EDD"/>
<path d="M160.796 94.3926H24.3091V265.128H160.796V94.3926Z" fill="#E6E6E6"/>
<path d="M63.0617 108.783H33.8145V128.296H63.0617V108.783Z" fill="white"/>
<path d="M147.147 146.833H34.0581V153.662H147.147V146.833Z" fill="white"/>
<path d="M147.147 164.882H34.0581V171.712H147.147V164.882Z" fill="white"/>
<path d="M147.147 182.931H34.0581V189.761H147.147V182.931Z" fill="white"/>
<path d="M147.147 200.98H34.0581V207.81H147.147V200.98Z" fill="white"/>
<path d="M147.147 219.03H34.0581V225.859H147.147V219.03Z" fill="white"/>
<path d="M187.607 264.884C187.6 271.328 185.271 277.552 181.047 282.414C176.822 287.276 170.986 290.449 164.611 291.351C158.237 292.252 151.751 290.821 146.346 287.32C140.941 283.819 136.98 278.484 135.19 272.295C133.401 266.105 133.904 259.478 136.606 253.63C139.308 247.782 144.029 243.106 149.9 240.462C155.771 237.817 162.398 237.382 168.564 239.236C174.73 241.09 180.02 245.108 183.463 250.552C186.171 254.842 187.607 259.811 187.607 264.884Z" fill="#323EDD"/>
<path d="M183.463 250.552L157.072 276.958C155.414 274.388 146.173 262.445 146.173 262.445C147.357 261.248 148.621 260.131 149.955 259.104L157.618 269.329L180.373 246.557C181.527 247.788 182.561 249.126 183.463 250.552Z" fill="white"/>
</g>
<defs>
<clipPath id="clip0">
<rect width="478" height="388" fill="white"/>
</clipPath>
</defs>
</svg>
