<svg width="423" height="305" viewBox="0 0 423 305" fill="none" xmlns="http://www.w3.org/2000/svg">
<g clip-path="url(#clip0)">
<path d="M208.182 305C267.503 305 315.591 298.955 315.591 291.499C315.591 284.042 267.503 277.998 208.182 277.998C148.862 277.998 100.773 284.042 100.773 291.499C100.773 298.955 148.862 305 208.182 305Z" fill="#3F3D56"/>
<path d="M389.876 176.059L348.353 195.744L385.102 168.218C379.129 158.879 372.42 150.034 365.037 141.769L184.959 186.605L347.62 124.449C340.187 117.879 332.293 111.852 324 106.413L49.6027 150.688C20.4687 187.182 4.58688 232.515 4.56445 279.244H417.606C417.59 243.004 408.024 207.41 389.876 176.059Z" fill="#F2F2F2"/>
<path d="M301.542 93.6322C273.37 79.8679 242.43 72.7356 211.085 72.78C147.291 72.78 90.256 101.757 52.373 147.285C117.244 133.047 230.189 108.399 301.542 93.6322Z" fill="#F2F2F2"/>
<path opacity="0.4" d="M342.166 113.526C345.583 113.526 348.353 110.751 348.353 107.328C348.353 103.905 345.583 101.13 342.166 101.13C338.748 101.13 335.978 103.905 335.978 107.328C335.978 110.751 338.748 113.526 342.166 113.526Z" fill="#FFE75E"/>
<path opacity="0.4" d="M330.714 114.636C333.111 114.636 335.054 112.69 335.054 110.288C335.054 107.887 333.111 105.94 330.714 105.94C328.317 105.94 326.374 107.887 326.374 110.288C326.374 112.69 328.317 114.636 330.714 114.636Z" fill="#FFE75E"/>
<path opacity="0.4" d="M49.2473 136.734C56.4042 136.734 62.206 130.922 62.206 123.753C62.206 116.584 56.4042 110.772 49.2473 110.772C42.0904 110.772 36.2886 116.584 36.2886 123.753C36.2886 130.922 42.0904 136.734 49.2473 136.734Z" fill="#FFE75E"/>
<path opacity="0.4" d="M25.2638 139.059C30.2843 139.059 34.3542 134.982 34.3542 129.953C34.3542 124.924 30.2843 120.847 25.2638 120.847C20.2433 120.847 16.1733 124.924 16.1733 129.953C16.1733 134.982 20.2433 139.059 25.2638 139.059Z" fill="#FFE75E"/>
<path d="M423 278.829H0V279.659H423V278.829Z" fill="#2F2E41"/>
<path d="M375.077 278.829L342.132 229.809C342.132 229.809 392.024 247.257 386.362 278.829H375.077Z" fill="#3F3D56"/>
<path d="M376.37 278.829L409.314 229.809C409.314 229.809 359.422 247.257 365.085 278.829H376.37Z" fill="#FFE75E"/>
<path d="M86.259 55.1557C86.259 52.4568 82.4172 50.2689 77.6782 50.2689C77.5844 50.2689 77.4916 50.2712 77.3985 50.2729C75.9689 45.883 69.2109 42.5586 61.0886 42.5586C54.178 42.5586 48.2552 44.9652 45.7611 48.387C43.9184 47.8984 42.0195 47.6549 40.1133 47.6626C32.8467 47.6626 26.9561 51.0174 26.9561 55.1557C26.9561 58.9149 31.8172 62.027 38.1546 62.5658C42.7597 63.4092 49.9531 63.952 58.0376 63.952C71.763 63.952 81.8061 61.3293 82.0579 59.3579C84.5729 58.5059 86.259 56.9432 86.259 55.1557Z" fill="#F2F2F2"/>
<path d="M293.612 57.2328C293.612 54.5339 289.77 52.346 285.031 52.346C284.937 52.346 284.845 52.3483 284.752 52.35C283.322 47.9601 276.564 44.6357 268.442 44.6357C261.531 44.6357 255.608 47.0423 253.114 50.4641C251.271 49.9755 249.372 49.732 247.466 49.7397C240.2 49.7397 234.309 53.0945 234.309 57.2328C234.309 60.992 239.17 64.1041 245.508 64.6429C250.113 65.4863 257.306 66.0291 265.391 66.0291C279.116 66.0291 289.159 63.4064 289.411 61.435C291.926 60.583 293.612 59.0203 293.612 57.2328Z" fill="#F2F2F2"/>
<path d="M409.315 22.1111C409.315 17.3738 402.572 13.5335 394.253 13.5335C394.089 13.5335 393.926 13.5376 393.763 13.5406C391.253 5.83527 379.391 -7.62939e-06 365.135 -7.62939e-06C353.005 -7.62939e-06 342.609 4.22431 338.231 10.2303C334.997 9.3728 331.664 8.94532 328.318 8.95881C315.563 8.95881 305.224 14.8473 305.224 22.1111C305.224 28.7095 313.756 34.1719 324.88 35.1176C332.963 36.5981 345.589 37.5508 359.779 37.5508C383.871 37.5508 401.499 32.9473 401.941 29.487C406.355 27.9915 409.315 25.2487 409.315 22.1111Z" fill="#F2F2F2"/>
<path d="M236.453 120.433C227.875 105.914 210.904 105.238 210.904 105.238C210.904 105.238 194.367 103.119 183.758 125.232C173.87 145.843 160.224 165.743 181.561 170.568L185.415 158.552L187.802 171.463C190.84 171.682 193.888 171.734 196.932 171.619C219.783 170.88 241.545 171.835 240.844 163.621C239.913 152.702 244.707 134.404 236.453 120.433Z" fill="#2F2E41"/>
<path d="M180.343 247.585C180.091 249.182 179.725 250.759 179.249 252.303C178.712 253.815 177.883 255.214 177.392 256.741C175.828 261.61 177.997 267.04 181.461 270.798C184.464 274.044 188.342 276.351 192.625 277.439C195.75 278.226 198.999 278.339 202.219 278.449C211.137 278.752 220.283 279.023 228.733 276.152C231.403 275.223 233.981 274.049 236.436 272.647C237.211 272.277 237.894 271.738 238.435 271.07C239.079 270.151 239.162 268.959 239.156 267.836C239.137 264.049 238.371 260.282 238.553 256.499C238.653 254.404 239.045 252.311 238.852 250.222C238.586 247.85 237.594 245.618 236.012 243.833C234.431 242.047 232.337 240.795 230.017 240.247C227.62 239.731 225.134 240.012 222.694 240.247C216.359 240.857 209.998 241.142 203.634 241.101C197.132 241.059 190.67 240.065 184.201 239.961C182.287 239.931 182.326 240.521 181.717 242.376C181.156 244.083 180.697 245.823 180.343 247.585Z" fill="#2F2E41"/>
<path d="M198.795 154.08C198.483 155.718 198.145 157.417 197.162 158.764C196.03 160.314 194.186 161.199 192.969 162.682C191.138 164.914 191.032 168.055 191.025 170.945C191.018 173.606 191.072 176.446 192.554 178.655C193.515 180.089 194.979 181.094 196.409 182.06C201.966 185.811 207.971 189.63 214.671 189.754C217.447 189.805 220.424 189.087 222.251 186.992C223.039 186.008 223.66 184.9 224.086 183.713C225.799 179.482 226.838 175.008 227.163 170.455C227.316 168.312 227.301 166.108 226.578 164.086C225.764 161.813 224.118 159.942 223.03 157.787C221.744 155.224 221.274 152.327 221.683 149.488C221.737 149.289 221.72 149.076 221.635 148.887C221.546 148.786 221.434 148.707 221.309 148.656C221.184 148.605 221.049 148.584 220.915 148.595L207.629 147.637C206.392 147.575 205.16 147.434 203.941 147.214C203.224 147.068 201.333 146.049 200.65 146.32C199.386 146.822 199.054 152.721 198.795 154.08Z" fill="#FFB8B8"/>
<path opacity="0.1" d="M198.795 154.08C198.483 155.718 198.145 157.417 197.162 158.764C196.03 160.314 194.186 161.199 192.969 162.682C191.138 164.914 191.032 168.055 191.025 170.945C191.018 173.606 191.072 176.446 192.554 178.655C193.515 180.089 194.979 181.094 196.409 182.06C201.966 185.811 207.971 189.63 214.671 189.754C217.447 189.805 220.424 189.087 222.251 186.992C223.039 186.008 223.66 184.9 224.086 183.713C225.799 179.482 226.838 175.008 227.163 170.455C227.316 168.312 227.301 166.108 226.578 164.086C225.764 161.813 224.118 159.942 223.03 157.787C221.744 155.224 221.274 152.327 221.683 149.488C221.737 149.289 221.72 149.076 221.635 148.887C221.546 148.786 221.434 148.707 221.309 148.656C221.184 148.605 221.049 148.584 220.915 148.595L207.629 147.637C206.392 147.575 205.16 147.434 203.941 147.214C203.224 147.068 201.333 146.049 200.65 146.32C199.386 146.822 199.054 152.721 198.795 154.08Z" fill="black"/>
<path d="M211.5 155.864C222.265 155.864 230.991 147.123 230.991 136.339C230.991 125.556 222.265 116.815 211.5 116.815C200.735 116.815 192.009 125.556 192.009 136.339C192.009 147.123 200.735 155.864 211.5 155.864Z" fill="#FFB8B8"/>
<path d="M201.529 180.07C202.545 181.134 203.621 182.187 204.952 182.81C206.307 183.372 207.763 183.649 209.229 183.626C212.743 183.725 216.552 183.08 218.996 180.55C222.146 177.288 222.042 172.028 224.512 168.222C224.711 167.877 224.983 167.58 225.308 167.351C225.722 167.125 226.19 167.017 226.661 167.039C229.78 167.01 232.497 169.036 234.949 170.967C236.048 171.832 237.173 172.728 237.866 173.944C238.351 174.891 238.683 175.91 238.85 176.962C240.067 182.912 240.461 188.996 240.852 195.057C241.068 198.404 241.284 201.755 241.268 205.11C241.215 216.163 238.651 227.03 236.101 237.783C235.772 239.169 235.322 240.718 234.064 241.381C233.504 241.634 232.902 241.781 232.288 241.816C224.983 242.675 217.664 243.535 210.31 243.649C207.44 243.693 204.572 243.624 201.705 243.44C201.211 243.434 200.722 243.348 200.255 243.187C199.622 242.882 199.077 242.419 198.674 241.843C194.697 236.821 194.462 229.88 194.487 223.47C194.55 207.798 195.109 192.139 196.164 176.492C196.251 175.201 196.271 173.632 195.342 172.616C197.014 175.299 199.341 177.779 201.529 180.07Z" fill="#D0CDE1"/>
<path d="M197.4 157.526C196.742 158.72 191.888 161.684 190.951 162.673C185.716 168.201 176.161 167.993 171.373 173.914C169.689 175.997 168.813 178.614 168.17 181.216C167.259 184.896 166.773 188.91 168.298 192.38C169.766 195.719 172.855 198.028 174.952 201.01C177.255 204.285 178.29 208.261 179.283 212.142C180.015 215.007 180.754 217.943 180.469 220.887C180.144 224.234 178.527 227.299 177.573 230.523C176.618 233.747 176.453 237.587 178.661 240.12C180.282 241.982 182.826 242.72 185.257 243.135C188.371 243.603 191.511 243.877 194.659 243.955C197.438 244.078 200.502 244.102 202.639 242.317C204.324 240.909 205.057 238.623 205.152 236.426C205.247 234.23 204.791 232.052 204.505 229.872C204.208 227.612 204.095 225.332 203.999 223.055C203.572 212.836 203.514 202.611 203.824 192.379C203.889 190.25 203.968 188.094 203.514 186.013C202.918 183.276 201.442 180.83 200.209 178.315C197.764 173.323 196.607 168.474 196.985 162.926C197.358 157.45 199.742 153.278 197.4 157.526Z" fill="#FFE75E"/>
<path d="M224.771 157.941C225.773 158.974 229.181 159.314 230.456 159.979C231.656 160.534 232.908 160.968 234.194 161.275C238.846 162.619 243.272 164.654 247.323 167.311C248.165 167.805 248.909 168.449 249.519 169.211C250.232 170.205 250.491 171.446 250.733 172.647C251.358 175.746 251.986 178.882 251.845 182.041C251.696 185.393 250.688 188.641 249.688 191.844L245.951 203.811C243.161 212.745 240.354 221.766 239.569 231.093C239.135 236.262 239.328 241.465 240.144 246.588C240.226 247.103 240.295 247.693 239.956 248.088C239.71 248.332 239.386 248.482 239.041 248.51C237.237 248.793 235.492 247.872 233.857 247.056C228.863 244.566 223.532 242.819 218.034 241.87C220.183 238.76 221.84 235.337 222.949 231.721C223.578 229.426 224.074 227.095 224.434 224.742L226.172 214.67C226.879 210.988 227.377 207.27 227.663 203.532C227.795 202.129 227.713 200.715 227.421 199.336C227.021 198.025 226.489 196.757 225.834 195.553C222.969 189.583 221.624 182.77 222.752 176.243C223.245 173.387 224.204 170.527 223.804 167.656C223.42 164.895 223.819 162.75 223.112 160.018C220.209 148.802 222.884 155.999 224.771 157.941Z" fill="#FFE75E"/>
<path d="M171.324 183.353C170.017 186.068 167.834 188.381 167.091 191.301C166.801 192.666 166.678 194.061 166.722 195.456C166.704 197.557 166.693 199.702 167.337 201.702C167.752 202.99 168.426 204.178 168.913 205.441C169.59 207.204 169.892 209.091 169.799 210.979C169.668 213.594 168.781 216.133 168.712 218.75C168.603 222.867 170.503 226.737 172.358 230.412C172.825 229.254 173.539 228.212 174.449 227.359C175.36 226.506 176.446 225.863 177.631 225.475C178.815 225.086 180.071 224.961 181.309 225.11C182.547 225.258 183.737 225.675 184.797 226.332C185.287 225.88 185.339 225.136 185.358 224.47C185.495 219.694 185.627 214.918 185.755 210.142C185.955 202.755 186.147 195.27 184.45 188.079C183.685 184.832 182.493 181.598 180.308 179.079C179.158 177.753 175.253 174.26 173.365 175.746C172.516 176.414 172.714 178.232 172.579 179.153C172.376 180.609 171.953 182.025 171.324 183.353Z" fill="#FFE75E"/>
<path d="M252.227 175.528C252.845 177.455 252.882 179.514 252.894 181.538C252.919 185.667 252.864 189.795 252.73 193.922C252.661 196.035 252.566 198.177 251.927 200.192C251.505 201.521 250.854 202.767 250.419 204.091C249.113 208.059 249.826 212.364 249.938 216.541C250.017 217.893 249.902 219.249 249.596 220.568C248.907 223.157 247.056 225.25 245.764 227.596C244.536 229.824 243.796 232.322 242.33 234.401C240.864 236.48 238.327 238.127 235.867 237.489C234.004 237.005 232.679 235.353 231.763 233.657C229.765 229.928 229.081 225.632 229.823 221.465C230.743 216.395 233.716 211.898 234.788 206.858C236.26 199.938 234.023 192.797 234.089 185.722C234.059 184.613 234.209 183.506 234.534 182.445C235.096 180.829 236.304 179.538 237.42 178.242C238.814 176.622 240.109 174.92 241.298 173.143C242.097 171.95 243.182 168.881 244.598 168.626C247.76 168.056 251.442 173.081 252.227 175.528Z" fill="#FFE75E"/>
<path d="M154.918 244.507C153.169 244.067 151.368 243.875 149.566 243.937C147.673 244.042 145.824 244.549 144.142 245.425C142.46 246.301 140.983 247.526 139.81 249.018C138.637 250.51 137.794 252.235 137.338 254.079C136.882 255.922 136.823 257.842 137.165 259.71C137.602 261.733 138.316 263.687 139.286 265.515C140.705 268.4 142.407 271.279 145.035 273.127C146.572 274.209 148.351 274.883 150.108 275.547L163.947 280.769C165.982 281.537 168.019 282.305 170.074 283.018C180.403 286.594 191.171 288.738 202.08 289.391C205.403 289.59 208.776 289.645 212.018 288.887C212.787 288.707 213.608 288.439 214.053 287.786C214.317 287.325 214.472 286.811 214.508 286.281L215.359 280.31C215.479 279.469 215.594 278.584 215.287 277.792C214.897 276.789 213.919 276.157 212.987 275.621C203.889 270.387 193.266 267.499 185.609 260.315C183.806 258.624 182.297 255.943 180.107 254.794C177.623 253.492 174.698 252.748 172.131 251.548C166.519 248.923 161 245.908 154.918 244.507Z" fill="#2F2E41"/>
<path opacity="0.1" d="M168.733 252.557C173.624 254.093 194.275 264.729 197.815 268.443C197.34 268.614 181.243 259.577 180.76 259.432C176.369 258.112 171.954 256.783 167.784 254.852C166.945 254.463 162.335 252.636 162.543 251.576C162.779 250.38 167.865 252.285 168.733 252.557Z" fill="black"/>
<path d="M229.754 292.488C230.032 292.509 230.307 292.428 230.53 292.26C230.627 292.134 230.699 291.991 230.74 291.837C230.782 291.684 230.793 291.524 230.772 291.366C230.764 288.654 230.757 285.942 230.749 283.231C228.414 282.116 225.802 281.759 223.237 281.415L211.274 279.814C211.549 279.85 209.403 284.975 209.732 285.66C210.312 286.865 214.743 287.934 215.993 288.504C220.341 290.483 224.858 292.659 229.754 292.488Z" fill="#FFB8B8"/>
<path d="M192.218 283.203C189.959 283.563 187.438 283.882 185.975 285.643C184.12 287.877 184.91 291.206 185.795 293.974C185.926 294.533 186.19 295.053 186.564 295.489C187.168 296.086 188.094 296.174 188.94 296.227C191 296.358 193.193 296.46 194.993 295.448C195.808 294.909 196.593 294.324 197.344 293.698C198.671 292.813 200.13 292.145 201.666 291.718C204.491 290.828 207.398 290.228 210.343 289.927C211.504 289.874 212.653 289.671 213.762 289.323C214.848 288.913 215.853 288.101 216.169 286.982C216.586 285.504 215.728 283.996 214.905 282.7C213.88 281.085 212.795 279.384 211.267 278.195C209.037 276.46 207.935 277.792 205.689 278.902C201.439 281.003 196.898 282.453 192.218 283.203Z" fill="#FFB8B8"/>
<path d="M186.315 285.241L171.972 280.994C170.228 280.478 168.454 279.957 166.635 279.958C164.816 279.959 162.913 280.557 161.733 281.944C160.621 283.251 160.302 285.038 160.025 286.734L159.432 290.36C159.131 292.203 158.829 294.081 159.1 295.929C159.371 297.776 160.313 299.622 161.949 300.517C163.934 301.601 166.367 301.072 168.582 300.618C173.056 299.702 177.607 299.213 182.174 299.158C183.89 299.137 185.691 299.159 187.208 298.353C189.011 297.396 190.09 295.372 190.276 293.336C190.558 290.238 189.527 286.192 186.315 285.241Z" fill="#2F2E41"/>
<path d="M235.392 281.54C237.251 281.214 238.892 280.155 240.674 279.53C243.182 278.651 245.899 278.651 248.556 278.661C249.532 278.664 250.571 278.686 251.382 279.227C252.553 280.008 252.853 281.57 253.052 282.964L254.252 291.376C254.478 292.959 254.703 294.583 254.351 296.142C253.998 297.701 252.938 299.204 251.393 299.606C249.518 300.094 247.679 298.894 245.908 298.106C241.482 296.135 236.337 296.639 231.722 295.166C230.866 294.893 229.948 294.475 229.599 293.645C229.441 293.178 229.385 292.682 229.434 292.192C229.513 289.488 228.944 285.795 229.756 283.211C230.487 280.887 233.317 281.54 235.392 281.54Z" fill="#2F2E41"/>
<path d="M265.744 241.121C268.61 240.401 271.581 240.198 274.518 240.521C276.864 240.779 279.281 241.433 280.993 243.06C283.078 245.039 283.747 248.1 283.803 250.977C283.895 256.706 281.998 262.29 278.436 266.774C277.567 267.908 276.532 268.906 275.368 269.733C274.112 270.52 272.773 271.167 271.376 271.66L240.385 283.905C232.233 287.126 224.051 290.357 215.547 292.48C215.315 292.593 215.062 292.657 214.804 292.67C214.546 292.684 214.289 292.645 214.046 292.557C213.803 292.469 213.581 292.333 213.391 292.157C213.202 291.982 213.049 291.77 212.942 291.534C210.227 287.649 207.949 283.475 206.15 279.088C206.065 278.984 206.006 278.861 205.979 278.729C205.951 278.597 205.956 278.46 205.992 278.331C206.028 278.201 206.095 278.082 206.187 277.983C206.279 277.885 206.393 277.811 206.52 277.766L228.44 265.15C230.01 264.246 231.598 263.329 232.901 262.071C233.849 261.151 234.624 260.069 235.192 258.876C235.646 257.926 235.689 255.682 236.269 254.979C236.837 254.291 238.781 254.237 239.679 253.966C240.945 253.578 242.185 253.108 243.391 252.56C248.294 250.363 252.66 247.17 257.361 244.598C259.997 243.088 262.814 241.92 265.744 241.121Z" fill="#2F2E41"/>
<path opacity="0.1" d="M253.318 250.543C249.553 253.376 244.676 255.98 240.944 258.888C239.67 259.881 218.436 271.84 218.135 273.428C221.617 274.016 243.799 258.472 246.972 256.921C250.146 255.37 252.959 253.182 255.747 251.011C256.457 250.458 259.468 248.794 257.428 248.176C256.28 247.828 254.167 249.976 253.318 250.543Z" fill="black"/>
<path d="M232.66 119.034L215.894 110.236L192.74 113.835L187.95 135.029L199.875 134.57L203.206 126.783V134.442L208.708 134.229L211.902 121.833L213.898 135.029L233.459 134.629L232.66 119.034Z" fill="#2F2E41"/>
<path d="M228.918 162.511H192.838V206.13H228.918V162.511Z" fill="#3F3D56"/>
<path d="M175.711 238.376C176.539 239.615 177.51 240.827 178.84 241.495C179.689 241.883 180.614 242.072 181.547 242.047C182.479 242.022 183.394 241.784 184.22 241.35C185.871 240.464 187.222 239.107 188.103 237.451C189.925 234.228 190.302 230.371 190.075 226.674C189.847 222.976 189.059 219.336 188.711 215.648C188.457 212.967 188.436 210.271 188.416 207.578C188.353 207.012 188.472 206.44 188.755 205.946C189.158 205.394 189.897 205.242 190.552 205.047C194.229 203.952 196.671 200.5 198.421 197.08C199.589 194.796 200.605 192.3 200.38 189.744C200.155 187.187 198.32 184.612 195.772 184.351C193.671 184.137 191.731 185.473 190.215 186.947C186.392 190.687 183.935 195.606 183.239 200.913C182.906 203.512 183.002 206.182 182.296 208.705C180.789 214.093 176.075 217.396 173.725 222.244C171.136 227.585 172.565 233.65 175.711 238.376Z" fill="#FFB8B8"/>
<path d="M245.088 217.794C244.551 219.043 243.771 220.172 242.792 221.114C241.813 222.057 240.655 222.793 239.388 223.28C237.812 223.914 236.074 224.02 234.433 223.584C233.619 223.358 232.868 222.947 232.238 222.383C231.609 221.818 231.118 221.117 230.803 220.332C230.552 219.541 230.414 218.718 230.394 217.889C230.158 214.255 230.249 210.512 231.567 207.119C232.075 205.81 232.76 204.569 233.161 203.223C233.555 201.669 233.757 200.072 233.761 198.469L234.194 188.556C234.266 187.836 234.216 187.11 234.047 186.407C233.615 184.972 232.277 184.04 231.049 183.185C228.084 181.119 225.153 178.708 223.716 175.389C223.223 174.389 223.046 173.263 223.21 172.16C223.615 170.191 225.598 168.917 227.558 168.488C228.841 168.207 230.167 168.189 231.456 168.435C232.746 168.681 233.972 169.186 235.062 169.92C236.151 170.653 237.081 171.6 237.796 172.703C238.51 173.807 238.994 175.043 239.219 176.339C239.413 177.458 239.41 178.6 239.524 179.73C239.764 182.127 240.524 184.437 240.999 186.798C242.169 192.613 241.563 198.625 242.72 204.44C243.688 209.302 247.336 212.474 245.088 217.794Z" fill="#FFB8B8"/>
<path d="M21.8265 278.421L20.9971 278.405C21.3179 269.167 22.3018 259.964 23.9413 250.868C27.5279 231.393 33.4917 218.602 41.6672 212.852L42.1434 213.532C23.0455 226.964 21.8362 277.908 21.8265 278.421Z" fill="#2F2E41"/>
<path d="M32.1942 278.222L31.3647 278.206C31.3826 277.286 31.901 255.602 40.4231 249.608L40.8993 250.288C32.721 256.04 32.1982 278.001 32.1942 278.222Z" fill="#2F2E41"/>
<path d="M46.8619 213.607C49.1523 213.607 51.009 211.748 51.009 209.453C51.009 207.159 49.1523 205.299 46.8619 205.299C44.5715 205.299 42.7148 207.159 42.7148 209.453C42.7148 211.748 44.5715 213.607 46.8619 213.607Z" fill="#FFE75E"/>
<path d="M44.8082 249.334C47.0986 249.334 48.9553 247.474 48.9553 245.179C48.9553 242.885 47.0986 241.025 44.8082 241.025C42.5178 241.025 40.6611 242.885 40.6611 245.179C40.6611 247.474 42.5178 249.334 44.8082 249.334Z" fill="#FFE75E"/>
<path d="M30.2607 216.098C31.0401 221.085 29.0088 225.545 29.0088 225.545C29.0088 225.545 25.7138 221.92 24.9344 216.933C24.155 211.946 26.1864 207.486 26.1864 207.486C26.1864 207.486 29.4813 211.111 30.2607 216.098Z" fill="#2F2E41"/>
<path d="M43.8166 228.209C39.0503 229.847 34.312 228.62 34.312 228.62C34.312 228.62 37.3012 224.738 42.0674 223.101C46.8336 221.463 51.5719 222.689 51.5719 222.689C51.5719 222.689 48.5828 226.571 43.8166 228.209Z" fill="#2F2E41"/>
<path d="M43.9695 259.848C41.8124 260.526 39.5151 260.626 37.3076 260.136C38.7093 258.348 40.5971 257.005 42.7435 256.267C44.8899 255.53 47.2035 255.43 49.4054 255.979C47.9629 257.723 46.0884 259.057 43.9695 259.848Z" fill="#2F2E41"/>
</g>
<defs>
<clipPath id="clip0">
<rect width="423" height="305" fill="white"/>
</clipPath>
</defs>
</svg>
